<?xml version="1.0" encoding="UTF-8" standalone="no"?><!DOCTYPE svg PUBLIC "-//W3C//DTD SVG 1.1//EN" "http://www.w3.org/Graphics/SVG/1.1/DTD/svg11.dtd"><svg width="100%" height="100%" viewBox="0 0 120 145" version="1.1" xmlns="http://www.w3.org/2000/svg" xmlns:xlink="http://www.w3.org/1999/xlink" xml:space="preserve" xmlns:serif="http://www.serif.com/" style="fill-rule:evenodd;clip-rule:evenodd;stroke-linecap:round;stroke-linejoin:round;stroke-miterlimit:1.5;"><rect x="0" y="0" width="118.776" height="108.102" style="fill:#ebebeb;"/><g><path d="M25.669,32.124L25.669,10.764L42.676,10.764L42.676,58.274" style="fill:none;stroke:#000;stroke-width:0.9px;"/><path d="M14.274,34.641C14.756,28.763 19.589,24.14 25.47,24.14C31.352,24.14 36.184,28.763 36.667,34.641L14.274,34.641Z" style="fill:#47c0a0;stroke:#000;stroke-width:0.9px;"/><rect x="14.722" y="39.326" width="0.257" height="4.406" style="fill:none;stroke:#47c0a0;stroke-width:0.9px;"/><rect x="20.286" y="38.3" width="0.263" height="4.516" style="fill:none;stroke:#47c0a0;stroke-width:0.9px;"/><rect x="24.788" y="40.033" width="0.28" height="4.807" style="fill:none;stroke:#47c0a0;stroke-width:0.9px;"/><rect x="29.241" y="37.946" width="0.257" height="4.406" style="fill:none;stroke:#47c0a0;stroke-width:0.9px;"/><rect x="34.805" y="36.92" width="0.263" height="4.516" style="fill:none;stroke:#47c0a0;stroke-width:0.9px;"/><ellipse cx="8.314" cy="70.176" rx="2.927" ry="2.999" style="fill:#c589a9;stroke:#000;stroke-width:1px;"/><path d="M9.43,72.976C10.468,76.503 12.554,77.753 15.357,77.443" style="fill:none;stroke:#000;stroke-width:0.95px;"/><ellipse cx="39.73" cy="68.687" rx="2.927" ry="2.999" style="fill:#c589a9;stroke:#000;stroke-width:1px;"/><path d="M14.006,91.721C14.488,76.29 19.272,48.763 24.271,48.763C29.27,48.763 33.54,76.29 33.969,91.721L14.006,91.721Z" style="fill:#47c0a0;stroke:#000;stroke-width:1px;"/><path d="M38.615,71.487C37.577,75.014 35.491,76.263 32.688,75.954" style="fill:none;stroke:#000;stroke-width:0.95px;"/><path d="M24.298,48.344C29.135,48.344 33.061,55.66 33.061,61.571C33.061,67.482 29.135,72.282 24.298,72.282C19.462,72.282 15.535,67.482 15.535,61.571C15.535,55.66 19.462,48.344 24.298,48.344Z" style="fill:#ffd38f;stroke:#000;stroke-width:1px;"/></g><g><path d="M58.662,71.063C58.82,66.729 84.124,63.979 96.253,64.422C108.382,64.864 107.937,68.52 107.779,72.854C107.621,77.188 107.782,81.336 95.653,80.894C83.524,80.452 58.504,75.397 58.662,71.063Z" style="fill:#47c0a0;stroke:#000;stroke-width:1px;"/><path d="M91.16,64.355C93.049,64.311 94.803,64.316 96.345,64.372C108.474,64.814 108.029,68.47 107.871,72.804C107.713,77.138 107.873,81.286 95.744,80.844C94.203,80.788 92.453,80.657 90.573,80.463C92.659,75.322 92.885,69.957 91.16,64.355Z" style="fill:#c589a9;stroke:#000;stroke-width:1px;"/><path d="M83.102,64.823C80.938,62.651 78.247,63.482 76.316,64.823" style="fill:none;stroke:#000;stroke-width:1px;"/><path d="M58.319,71.028C58.464,67.052 64.596,64.044 69.455,64.221C74.314,64.398 78.141,67.77 77.996,71.745C77.852,75.721 73.789,78.805 68.93,78.628C64.07,78.451 58.174,75.004 58.319,71.028Z" style="fill:#ffd38f;stroke:#000;stroke-width:1px;"/><path d="M82.219,64.457C83.547,64.408 84.665,65.474 84.715,66.834C84.765,68.195 83.727,69.339 82.398,69.387C81.07,69.435 79.952,68.37 79.902,67.01C79.852,65.649 80.89,64.505 82.219,64.457Z" style="fill:#c589a9;stroke:#000;stroke-width:1px;"/><rect x="48.17" y="81.175" width="64.116" height="7.541" style="fill:#ffd38f;stroke:#000;stroke-width:1px;"/><path d="M67.038,78.796C70.525,81.348 60.062,82.976 55.106,82.798C50.149,82.619 46.224,79.716 46.347,76.318C46.469,72.92 55.916,66.416 57.098,69.651C59.085,75.089 65.768,77.866 67.038,78.796Z" style="fill:#c589a9;stroke:#000;stroke-width:1px;"/><path d="M76.525,77.709C79.445,78.499 81.219,77.574 82.208,75.476" style="fill:none;stroke:#000;stroke-width:1px;"/><path d="M80.383,71.933C81.079,70.8 82.585,70.459 83.746,71.171C84.906,71.884 85.283,73.382 84.588,74.514C83.893,75.647 82.386,75.988 81.226,75.276C80.065,74.564 79.688,73.066 80.383,71.933Z" style="fill:#c589a9;stroke:#000;stroke-width:1px;"/></g><g><path d="M97.551,16.812C96.558,20.184 94.564,21.378 91.885,21.082" style="fill:none;stroke:#000;stroke-width:0.95px;"/><path d="M53.957,30.712C53.993,21.904 67.347,14.809 78.112,14.854C88.877,14.899 97.587,22.086 97.55,30.893C97.514,39.701 88.877,44.453 78.112,44.408C67.347,44.363 53.92,39.519 53.957,30.712Z" style="fill:#ffd38f;stroke:#000;stroke-width:1px;"/><ellipse cx="60.337" cy="42.083" rx="6.468" ry="6.625" style="fill:#c589a9;stroke:#000;stroke-width:1px;"/><path d="M86.951,20.502C90.606,20.502 93.573,23.299 93.573,26.744C93.573,30.189 90.606,29.537 86.951,29.537C83.295,29.537 80.328,30.189 80.328,26.744C80.328,23.299 83.295,20.502 86.951,20.502Z" style="fill:#47c0a0;stroke:#000;stroke-width:1px;"/><path d="M65.566,20.508C69.584,20.508 72.846,23.305 72.846,26.75C72.846,30.195 69.584,29.542 65.566,29.542C61.549,29.542 58.287,30.195 58.287,26.75C58.287,23.305 61.549,20.508 65.566,20.508Z" style="fill:#47c0a0;stroke:#000;stroke-width:1px;"/><ellipse cx="92.856" cy="41.334" rx="6.468" ry="6.625" style="fill:#c589a9;stroke:#000;stroke-width:1px;"/><path d="M81.721,42.374C79.327,41.001 77.358,32.41 78.331,29.337" style="fill:none;stroke:#000;stroke-width:0.95px;"/></g><rect x="0.316" y="107.46" width="118.823" height="37.115" style="fill:#c2c2c2;"/><ellipse cx="99.758" cy="123.746" rx="10.589" ry="10.207" style="fill:#dbdbdb;stroke:#363636;stroke-width:1.5px;"/><text x="5.094px" y="129.96px" style="font-family:'Futura-Medium', 'Futura', sans-serif;font-weight:500;font-size:10px;">BEHA<tspan x="30.812px 37.575px " y="129.96px 129.96px ">VI</tspan>OUR</text></svg>