<?xml version="1.0" encoding="UTF-8" standalone="no"?><!DOCTYPE svg PUBLIC "-//W3C//DTD SVG 1.1//EN" "http://www.w3.org/Graphics/SVG/1.1/DTD/svg11.dtd"><svg width="100%" height="100%" viewBox="0 0 119 145" version="1.1" xmlns="http://www.w3.org/2000/svg" xmlns:xlink="http://www.w3.org/1999/xlink" xml:space="preserve" xmlns:serif="http://www.serif.com/" style="fill-rule:evenodd;clip-rule:evenodd;stroke-linecap:round;stroke-linejoin:round;stroke-miterlimit:1.5;"><rect x="0.116" y="0" width="118.884" height="107.911" style="fill:#ebebeb;"/><rect x="0" y="107.951" width="118.931" height="37.049" style="fill:#c2c2c2;"/><ellipse cx="98.049" cy="124.598" rx="10.599" ry="10.189" style="fill:#dbdbdb;stroke:#363636;stroke-width:1.5px;"/><text x="4.116px" y="129.321px" style="font-family:'Futura-Medium', 'Futura', sans-serif;font-weight:500;font-size:9.982px;">BIOMET<tspan x="42.041px " y="129.321px ">R</tspan>IC</text><path id="finger" d="M57.25,12.032C74.064,12.032 87.715,37.468 87.715,58.019C87.715,78.57 74.064,95.255 57.25,95.255C40.435,95.255 26.784,78.57 26.784,58.019C26.784,37.468 40.435,12.032 57.25,12.032Z" style="fill:#ffd38f;"/><path id="print" d="M38.911,28.203C42.383,23.95 46.003,18.096 50.465,16.467C54.928,14.837 61.634,17.154 65.686,18.427C69.093,19.498 72.502,21.349 74.773,24.106C77.524,27.445 82.192,37.976 82.192,38.465C82.192,38.954 78.513,29.555 74.773,27.037C71.032,24.52 64.275,23.972 59.751,23.358C55.746,22.816 51.187,21.857 47.626,23.358C44.065,24.86 40.802,29.159 38.387,32.365C36.08,35.428 34.925,39.207 33.134,42.597C31.278,46.109 26.291,53.437 27.254,53.437C28.217,53.437 35.621,46.109 38.911,42.597C41.883,39.425 42.784,33.443 46.994,32.365C52.509,30.955 66.551,31.408 71.999,34.131C76.911,36.586 78.531,43.333 79.685,48.701C80.966,54.662 79.428,65.893 79.685,69.896C79.753,70.965 81.478,71.675 81.226,72.716C80.742,74.713 78.173,80.714 76.785,81.878C75.647,82.833 73.019,81.181 72.897,79.7C72.561,75.627 75.321,63.925 74.773,57.439C74.283,51.647 73.045,43.948 69.604,40.785C66.163,37.623 58.508,37.494 54.127,38.465C49.746,39.436 46.416,44.637 43.319,46.612C40.898,48.155 37.599,48.31 35.543,50.313C32.866,52.92 27.94,58.381 27.254,62.258C26.567,66.135 28.133,74.768 31.423,73.576C34.713,72.384 42.636,59.252 46.994,55.106C49.981,52.264 54.721,49.277 57.574,48.701C59.918,48.229 63.445,49.357 64.112,51.653C65.038,54.836 65.079,63.368 63.126,67.799C61.173,72.231 55.697,75.744 52.396,78.241C49.697,80.283 45.846,82.936 43.319,82.783C40.791,82.631 35.935,79.723 37.234,77.328C39.61,72.946 54.759,60.195 57.574,56.491C58.324,55.506 55.083,54.318 54.127,55.106C49.913,58.579 34.913,71.966 32.29,77.328C30.58,80.823 35.83,84.666 38.387,87.279C40.92,89.869 45.002,92.299 47.626,93.003C49.774,93.58 51.912,91.309 54.127,91.504C56.352,91.7 58.541,94.486 60.972,94.181C63.812,93.825 70.804,92.175 71.163,89.366C71.522,86.558 64.301,79.845 63.126,77.328C62.672,76.356 63.225,73.661 64.112,74.264C65.452,75.173 69.387,80.527 71.163,82.783C72.438,84.402 72.846,88.531 74.773,87.801C76.771,87.044 81.123,81.575 83.152,78.241C85.077,75.078 86.945,71.502 86.945,67.799C86.945,60.838 85.323,44.363 83.152,36.477C81.517,30.541 78.182,24.674 73.919,20.48C69.656,16.285 63.026,11.309 57.574,11.309C52.122,11.309 45.413,15.852 41.207,20.48C36.468,25.694 28.27,41.572 29.138,42.597C31.415,45.288 35.357,32.558 38.911,28.203Z" style="fill:none;stroke:#000;stroke-width:1px;"/></svg>