<?xml version="1.0" encoding="UTF-8" standalone="no"?><!DOCTYPE svg PUBLIC "-//W3C//DTD SVG 1.1//EN" "http://www.w3.org/Graphics/SVG/1.1/DTD/svg11.dtd"><svg width="100%" height="100%" viewBox="0 0 119 145" version="1.1" xmlns="http://www.w3.org/2000/svg" xmlns:xlink="http://www.w3.org/1999/xlink" xml:space="preserve" xmlns:serif="http://www.serif.com/" style="fill-rule:evenodd;clip-rule:evenodd;stroke-linecap:round;stroke-linejoin:round;stroke-miterlimit:1.5;"><rect x="0.116" y="0" width="118.884" height="107.911" style="fill:#ebebeb;"/><rect x="0" y="107.951" width="118.931" height="37.049" style="fill:#c2c2c2;"/><ellipse cx="98.049" cy="124.598" rx="10.599" ry="10.189" style="fill:#dbdbdb;stroke:#363636;stroke-width:1.5px;"/><text x="4.116px" y="129.321px" style="font-family:'Futura-Medium', 'Futura', sans-serif;font-weight:500;font-size:9.982px;">BIOMET<tspan x="42.041px " y="129.321px ">R</tspan>IC</text><path d="M57.25,12.032C74.064,12.032 87.715,37.468 87.715,58.019C87.715,78.57 74.064,95.255 57.25,95.255C40.435,95.255 26.784,78.57 26.784,58.019C26.784,37.468 40.435,12.032 57.25,12.032Z" style="fill:#ffd38f;"/><path d="M38.911,28.203C42.383,23.95 46.003,18.096 50.465,16.467C54.928,14.837 61.634,17.154 65.686,18.427C69.093,19.498 72.502,21.349 74.773,24.106C77.524,27.445 82.192,37.976 82.192,38.465C82.192,38.954 78.747,29.234 74.773,27.037C72.931,26.02 67.063,29.178 64.112,28.203C58.974,26.507 56.318,20.866 53.472,20.48C50.962,20.139 56.057,28.019 53.472,28.203C51.711,28.329 48.437,23.497 46.994,24.106C43.434,25.607 40.697,29.284 38.387,32.365C36.087,35.433 34.925,39.207 33.134,42.597C31.278,46.109 26.291,53.106 27.254,53.437C28.217,53.768 35.621,48.097 38.911,44.585C42.201,41.073 42.784,33.443 46.994,32.365C50.161,31.555 55.424,34.58 60.972,35.076C65.087,35.444 69.679,32.972 71.999,34.131C76.911,36.586 76.072,44.566 79.685,48.701C84.425,54.128 80.904,65.665 79.685,69.896C79.388,70.925 81.478,71.675 81.226,72.716C80.742,74.713 78.173,80.714 76.785,81.878C75.647,82.833 73.019,81.181 72.897,79.7C72.756,77.997 64.503,72.151 67.132,69.896C68.684,68.564 76.451,66.455 74.773,57.439C73.709,51.724 73.045,43.948 69.604,40.785C66.163,37.623 58.508,37.494 54.127,38.465C49.746,39.436 46.416,44.637 43.319,46.612C40.898,48.155 37.599,48.31 35.543,50.313C32.866,52.92 30.397,59.887 27.254,62.258C23.73,64.916 30.704,76.526 31.423,73.576C35.586,56.496 33.153,51.333 40.12,60.98C42.789,64.675 42.021,47.982 46.994,51.653C50.498,54.238 55.244,49.21 57.574,48.701C58.596,48.478 57.247,41.809 59.536,40.785C62.479,39.469 69.083,43.919 69.604,45.709C70.153,47.599 64.934,49.797 63.126,55.106C61.888,58.74 72.039,62.791 69.604,62.258C62.404,60.681 51.532,66.997 52.396,78.241C52.946,85.407 42.121,87.529 44.965,79.7C45.829,77.321 35.947,79.697 37.234,77.328C39.335,73.46 54.759,60.195 57.574,56.491C58.324,55.506 55.083,54.318 54.127,55.106C49.913,58.579 34.913,71.966 32.29,77.328C30.58,80.823 35.83,84.666 38.387,87.279C40.92,89.869 44.728,93.178 47.626,93.003C50.524,92.829 53.549,86.036 55.774,86.233C57.998,86.429 58.408,93.659 60.972,94.181C62.415,94.475 61.761,88.945 64.112,87.801C65.942,86.912 71.006,90.595 71.163,89.366C71.522,86.558 64.301,79.845 63.126,77.328C62.672,76.356 63.225,73.661 64.112,74.264C65.452,75.173 69.387,80.527 71.163,82.783C72.438,84.402 72.846,88.531 74.773,87.801C76.771,87.044 81.123,81.575 83.152,78.241C85.077,75.078 87.536,71.455 86.945,67.799C85.785,60.608 83.665,44.035 83.152,36.477C82.734,30.334 78.56,24.251 73.919,20.48C69.352,16.769 62.034,12.887 57.574,11.309C52.435,9.49 45.413,15.852 41.207,20.48C36.468,25.694 28.27,41.572 29.138,42.597C31.415,45.288 35.357,32.558 38.911,28.203Z" style="fill:none;stroke:#000;stroke-width:1px;"/></svg>