<?xml version="1.0" encoding="UTF-8" standalone="no"?><!DOCTYPE svg PUBLIC "-//W3C//DTD SVG 1.1//EN" "http://www.w3.org/Graphics/SVG/1.1/DTD/svg11.dtd"><svg width="100%" height="100%" viewBox="0 0 119 145" version="1.1" xmlns="http://www.w3.org/2000/svg" xmlns:xlink="http://www.w3.org/1999/xlink" xml:space="preserve" xmlns:serif="http://www.serif.com/" style="fill-rule:evenodd;clip-rule:evenodd;stroke-linecap:round;stroke-linejoin:round;stroke-miterlimit:1.5;"><rect x="0" y="0" width="118.776" height="107.877" style="fill:#ebebeb;"/><path d="M87.82,37.376L87.82,80.34L25.655,80.34" style="fill:none;stroke:#000;stroke-width:1px;"/><ellipse cx="80.178" cy="83.469" rx="8.965" ry="8.13" style="fill:#c589a9;stroke:#000;stroke-width:1px;"/><ellipse cx="38.336" cy="82.733" rx="8.965" ry="8.13" style="fill:#c589a9;stroke:#000;stroke-width:1px;"/><path d="M22.881,51.724C22.881,38.642 42.887,32.342 58.797,28.022C79.709,22.343 92.598,34.164 89.446,51.724C87.119,64.688 75.712,70.369 58.797,70.369C41.881,70.369 22.881,64.805 22.881,51.724Z" style="fill:#47c0a0;stroke:#000;stroke-width:1px;"/><path d="M88.844,40.119C87.712,34.478 85.723,28.718 86.908,23.616L101.318,18.344" style="fill:none;stroke:#000;stroke-width:1px;"/><path d="M24.948,44.597L30.367,63.893" style="fill:none;stroke:#000;stroke-width:1px;"/><path d="M35.928,35.914L40.493,68.316" style="fill:none;stroke:#000;stroke-width:1px;"/><path d="M52.225,29.802L49.154,68.947" style="fill:none;stroke:#000;stroke-width:1px;"/><path d="M88.259,37.557L81.079,65.245" style="fill:none;stroke:#000;stroke-width:1px;"/><path d="M77.186,28.087L71.204,68.947" style="fill:none;stroke:#000;stroke-width:1px;"/><path d="M64.129,27.399L57.943,69.931" style="fill:none;stroke:#000;stroke-width:1px;"/><path d="M35.223,36.795L87.814,36.795" style="fill:none;stroke:#000;stroke-width:1px;"/><path d="M23.847,46.953L89.739,46.953" style="fill:none;stroke:#000;stroke-width:1px;"/><path d="M25.732,57.048L87.947,57.048" style="fill:none;stroke:#000;stroke-width:1px;"/><rect x="0.146" y="107.963" width="118.823" height="37.037" style="fill:#c2c2c2;"/><ellipse cx="100.092" cy="128.376" rx="10.589" ry="10.186" style="fill:#dbdbdb;stroke:#363636;stroke-width:1.5px;"/><text x="2.729px" y="131.808px" style="font-family:'Futura-Medium', 'Futura', sans-serif;font-weight:500;font-size:9.979px;">CONSUMP<tspan x="55.297px " y="131.808px ">T</tspan>ION</text></svg>