<?xml version="1.0" encoding="UTF-8" standalone="no"?><!DOCTYPE svg PUBLIC "-//W3C//DTD SVG 1.1//EN" "http://www.w3.org/Graphics/SVG/1.1/DTD/svg11.dtd"><svg width="100%" height="100%" viewBox="0 0 120 145" version="1.1" xmlns="http://www.w3.org/2000/svg" xmlns:xlink="http://www.w3.org/1999/xlink" xml:space="preserve" xmlns:serif="http://www.serif.com/" style="fill-rule:evenodd;clip-rule:evenodd;stroke-linecap:round;stroke-linejoin:round;stroke-miterlimit:1.5;"><rect x="0" y="0" width="118.776" height="108.102" style="fill:#ebebeb;"/><path d="M24.895,75.995C28.587,75.995 31.584,80.001 31.584,83.237C31.584,86.473 28.587,89.101 24.895,89.101C21.203,89.101 18.205,86.473 18.205,83.237C18.205,80.001 21.203,75.995 24.895,75.995Z" style="fill:#c589a9;stroke:#000;stroke-width:1px;"/><path d="M24.841,67.27C33.757,67.27 40.996,70.747 40.996,75.636C40.996,76.873 35.804,79.869 35.839,77.475C35.885,74.309 29.473,72.167 24.065,72.375C19.104,72.566 15.097,74.86 15.37,77.475C15.558,79.268 8.686,77.296 8.686,75.636C8.686,70.747 15.924,67.27 24.841,67.27Z" style="fill:#c589a9;stroke:#000;stroke-width:1px;"/><path d="M78.125,39.912C78.252,30.695 80.584,19.552 92.184,19.458C104.94,19.355 106.116,30.695 106.243,39.912L78.125,39.912Z" style="fill:#ffd38f;stroke:#000;stroke-width:1px;"/><path d="M95.701,39.149C95.701,39.149 103.534,44.332 103.876,46.821C104.219,49.311 83.213,57.244 81.11,58.076C79.965,58.528 80.549,49.24 78.603,48.31C77.321,47.697 95.294,48.077 94.851,46.069C94.407,44.062 88.372,39.149 88.372,39.149" style="fill:none;stroke:#000;stroke-width:1px;"/><g><ellipse cx="60.928" cy="54.612" rx="19.481" ry="19.445" style="fill:#fff;stroke:#0a0000;stroke-width:1px;"/><ellipse cx="45.206" cy="58.228" rx="2.914" ry="2.984" style="fill:#c589a9;stroke:#0a0000;stroke-width:1px;"/><path d="M46.316,61.014C47.349,64.525 49.425,65.768 52.214,65.46" style="fill:none;stroke:#0a0000;stroke-width:1px;"/><ellipse cx="76.472" cy="56.746" rx="2.914" ry="2.984" style="fill:#c589a9;stroke:#0a0000;stroke-width:1px;"/><path d="M75.362,59.532C74.329,63.042 72.253,64.286 69.463,63.978" style="fill:none;stroke:#0a0000;stroke-width:1px;"/><path d="M51.409,71.579C52.872,56.284 56.903,36.917 61.086,36.917C65.278,36.917 68.955,56.369 70.264,71.68C67.491,73.195 64.309,74.058 60.928,74.058C57.471,74.058 54.224,73.157 51.409,71.579Z" style="fill:#47c0a0;stroke:#0a0000;stroke-width:1px;"/><path d="M61.113,36.5C65.927,36.5 69.834,43.781 69.834,49.664C69.834,55.547 65.927,60.323 61.113,60.323C56.3,60.323 52.392,55.547 52.392,49.664C52.392,43.781 56.3,36.5 61.113,36.5Z" style="fill:#ffd38f;stroke:#0a0000;stroke-width:1px;"/></g><path d="M25.3,69.923C31.597,69.923 36.214,76.384 36.214,81.904C36.214,87.424 31.101,91.905 24.804,91.905C18.506,91.905 13.394,87.424 13.394,81.904C13.394,76.384 19.003,69.923 25.3,69.923Z" style="fill:#ffd38f;stroke:#000;stroke-width:1px;"/><path d="M39.513,77.688C40.765,78.208 43.271,79.248 43.607,80.257C43.942,81.265 41.524,84.365 41.524,83.738C41.524,83.112 42.548,76.842 43.607,76.499C44.665,76.156 47.384,80.283 47.877,81.68C48.261,82.767 46.784,85.544 46.565,84.879C46.346,84.213 45.251,78.221 46.565,77.688C47.879,77.155 53.576,80.482 54.448,81.68C55.263,82.799 52.179,86.21 51.801,84.879C51.359,83.328 51.653,76.026 51.801,72.375" style="fill:none;stroke:#000;stroke-width:1px;"/><path d="M78.478,26.268C76.839,20.156 90.77,12.532 92.538,12.39C93.347,11.385 107.33,18.944 106.597,26.268L91.511,24.302L78.478,26.268Z" style="fill:#47c0a0;stroke:#000;stroke-width:1px;"/><path d="M92.188,30.921C95.95,30.909 96.135,39.926 96.135,39.926L88.338,39.926C88.338,39.926 88.83,30.931 92.188,30.921Z" style="fill:#c589a9;stroke:#000;stroke-width:1px;"/><rect x="0.289" y="107.885" width="118.823" height="37.115" style="fill:#c2c2c2;"/><ellipse cx="99.038" cy="124.17" rx="10.589" ry="10.207" style="fill:#dbdbdb;stroke:#363636;stroke-width:1.5px;"/><text x="4.251px" y="132.053px" style="font-family:'Futura-Medium', 'Futura', sans-serif;font-weight:500;font-size:10px;">CONT<tspan x="33.001px 40.057px 47.064px " y="132.053px 132.053px 132.053px ">ACT</tspan></text></svg>