<?xml version="1.0" encoding="UTF-8" standalone="no"?><!DOCTYPE svg PUBLIC "-//W3C//DTD SVG 1.1//EN" "http://www.w3.org/Graphics/SVG/1.1/DTD/svg11.dtd"><svg width="100%" height="100%" viewBox="0 0 119 145" version="1.1" xmlns="http://www.w3.org/2000/svg" xmlns:xlink="http://www.w3.org/1999/xlink" xml:space="preserve" xmlns:serif="http://www.serif.com/" style="fill-rule:evenodd;clip-rule:evenodd;stroke-linecap:round;stroke-linejoin:round;stroke-miterlimit:1.5;"><rect x="0" y="0" width="118.834" height="107.666" style="fill:#ebebeb;"/><path d="M98.17,36.226C98.17,35.224 97.357,34.411 96.356,34.411L21.644,34.411C20.643,34.411 19.83,35.224 19.83,36.226L19.83,81.585C19.83,82.587 20.643,83.4 21.644,83.4L96.356,83.4C97.357,83.4 98.17,82.587 98.17,81.585L98.17,36.226Z" style="fill:#c589a9;stroke:#000;stroke-width:1px;"/><path d="M98.263,47.513C98.263,47.18 97.992,46.909 97.659,46.909L20.337,46.909C20.003,46.909 19.733,47.18 19.733,47.513L19.733,62.618C19.733,62.951 20.003,63.222 20.337,63.222L97.659,63.222C97.992,63.222 98.263,62.951 98.263,62.618L98.263,47.513Z" style="fill:#47c0a0;stroke:#000;stroke-width:1px;"/><path d="M27.14,53.655L26.958,50.385L29.403,50.385L29.208,53.655L32.287,52.468L33.041,54.782L29.853,55.605L31.934,58.149L29.963,59.578L28.174,56.816L26.398,59.578L24.415,58.149L26.507,55.617L23.32,54.782L24.074,52.468L27.14,53.655Z" style="fill-rule:nonzero;"/><path d="M42.519,53.655L42.336,50.385L44.782,50.385L44.587,53.655L47.665,52.468L48.419,54.782L45.232,55.605L47.312,58.149L45.341,59.578L43.553,56.816L41.776,59.578L39.793,58.149L41.886,55.617L38.698,54.782L39.453,52.468L42.519,53.655Z" style="fill-rule:nonzero;"/><path d="M57.897,53.655L57.715,50.385L60.16,50.385L59.966,53.655L63.044,52.468L63.798,54.782L60.61,55.605L62.691,58.149L60.72,59.578L58.931,56.816L57.155,59.578L55.172,58.149L57.265,55.617L54.077,54.782L54.831,52.468L57.897,53.655Z" style="fill-rule:nonzero;"/><path d="M73.276,53.655L73.093,50.385L75.539,50.385L75.344,53.655L78.422,52.468L79.177,54.782L75.989,55.605L78.069,58.149L76.099,59.578L74.31,56.816L72.534,59.578L70.551,58.149L72.643,55.617L69.456,54.782L70.21,52.468L73.276,53.655Z" style="fill-rule:nonzero;"/><path d="M88.654,53.655L88.472,50.385L90.917,50.385L90.723,53.655L93.801,52.468L94.555,54.782L91.368,55.605L93.448,58.149L91.477,59.578L89.689,56.816L87.912,59.578L85.929,58.149L88.022,55.617L84.834,54.782L85.588,52.468L88.654,53.655Z" style="fill-rule:nonzero;"/><rect x="68.184" y="74.457" width="27.073" height="5.485" style="fill:#47c0a0;stroke:#000;stroke-width:1px;"/><g><path d="M72.716,76.69L72.668,75.821L73.318,75.821L73.266,76.69L74.084,76.374L74.285,76.989L73.437,77.208L73.991,77.885L73.466,78.265L72.991,77.53L72.519,78.265L71.991,77.885L72.548,77.212L71.7,76.989L71.901,76.374L72.716,76.69Z" style="fill-rule:nonzero;"/><path d="M76.805,76.69L76.756,75.821L77.406,75.821L77.355,76.69L78.173,76.374L78.374,76.989L77.526,77.208L78.079,77.885L77.555,78.265L77.08,77.53L76.607,78.265L76.08,77.885L76.637,77.212L75.789,76.989L75.99,76.374L76.805,76.69Z" style="fill-rule:nonzero;"/><path d="M80.893,76.69L80.845,75.821L81.495,75.821L81.443,76.69L82.262,76.374L82.462,76.989L81.615,77.208L82.168,77.885L81.644,78.265L81.168,77.53L80.696,78.265L80.169,77.885L80.725,77.212L79.878,76.989L80.078,76.374L80.893,76.69Z" style="fill-rule:nonzero;"/><path d="M84.982,76.69L84.934,75.821L85.584,75.821L85.532,76.69L86.351,76.374L86.551,76.989L85.704,77.208L86.257,77.885L85.733,78.265L85.257,77.53L84.785,78.265L84.258,77.885L84.814,77.212L83.967,76.989L84.167,76.374L84.982,76.69Z" style="fill-rule:nonzero;"/><path d="M89.071,76.69L89.022,75.821L89.673,75.821L89.621,76.69L90.439,76.374L90.64,76.989L89.792,77.208L90.345,77.885L89.821,78.265L89.346,77.53L88.874,78.265L88.346,77.885L88.903,77.212L88.055,76.989L88.256,76.374L89.071,76.69Z" style="fill-rule:nonzero;"/></g><rect x="24.105" y="69.679" width="12.644" height="10.62" style="fill:#47c0a0;stroke:#000;stroke-width:1px;"/><rect x="0.119" y="108.035" width="118.881" height="36.965" style="fill:#c2c2c2;"/><ellipse cx="99.587" cy="128.409" rx="10.594" ry="10.166" style="fill:#dbdbdb;stroke:#363636;stroke-width:1.5px;"/><text x="4.253px" y="131.834px" style="font-family:'Futura-Medium', 'Futura', sans-serif;font-weight:500;font-size:9.96px;">CRED<tspan x="30.208px " y="131.834px ">E</tspan>NTIA<tspan x="59.5px " y="131.834px ">L</tspan>S</text></svg>