<?xml version="1.0" encoding="UTF-8" standalone="no"?><!DOCTYPE svg PUBLIC "-//W3C//DTD SVG 1.1//EN" "http://www.w3.org/Graphics/SVG/1.1/DTD/svg11.dtd"><svg width="100%" height="100%" viewBox="0 0 119 145" version="1.1" xmlns="http://www.w3.org/2000/svg" xmlns:xlink="http://www.w3.org/1999/xlink" xml:space="preserve" xmlns:serif="http://www.serif.com/" style="fill-rule:evenodd;clip-rule:evenodd;stroke-linecap:round;stroke-linejoin:round;stroke-miterlimit:1.5;"><rect x="0.205" y="0" width="118.776" height="108.21" style="fill:#ebebeb;"/><g><path d="M64.24,7.091C72.405,7.091 79.315,54.563 79.315,77.438C79.315,100.314 72.405,99.726 64.24,99.726C56.074,99.726 48.279,100.314 48.279,77.438C48.279,54.563 56.074,7.091 64.24,7.091Z" style="fill:#fff;stroke:#000;stroke-width:1px;"/><path d="M79.092,67.841C79.303,71.395 79.415,74.7 79.415,77.608C79.415,100.483 72.505,99.896 64.339,99.896C56.174,99.896 48.379,100.483 48.379,77.608C48.379,74.7 48.505,71.395 48.741,67.841C58.557,71.418 68.669,71.474 79.092,67.841Z" style="fill:#c589a9;stroke:#000;stroke-width:1px;"/><ellipse cx="39.526" cy="40.29" rx="4.534" ry="4.649" style="fill:#c589a9;stroke:#000;stroke-width:1px;"/><path d="M41.253,44.631C42.861,50.1 46.092,52.037 50.433,51.557" style="fill:none;stroke:#000;stroke-width:0.95px;"/><ellipse cx="88.184" cy="37.981" rx="4.534" ry="4.649" style="fill:#c589a9;stroke:#000;stroke-width:1px;"/><path d="M86.457,42.322C84.849,47.791 81.618,49.728 77.277,49.248" style="fill:none;stroke:#000;stroke-width:0.95px;"/><path d="M64.282,6.442C71.773,6.442 77.854,17.785 77.854,26.949C77.854,36.114 71.773,43.554 64.282,43.554C56.791,43.554 50.71,36.114 50.71,26.949C50.71,17.785 56.791,6.442 64.282,6.442Z" style="fill:#ffd38f;stroke:#000;stroke-width:1px;"/><path d="M52.822,15.483C58.836,16.245 67.31,16.243 75.662,15.483L77.991,22.677C68.277,25.119 58.836,25.182 50.707,22.677L52.822,15.483Z" style="fill:#171717;stroke:#000;stroke-width:1px;"/><path d="M49.32,59.648C58.537,62.729 68.211,62.815 78.382,59.648L78.382,67.502C68.681,71.428 58.993,71.648 49.32,67.502L49.32,59.648Z" style="fill:#171717;stroke:#000;stroke-width:1px;"/><path d="M50.233,51.387C59.449,54.469 67.267,54.554 77.438,51.387L78.417,59.241C68.715,63.167 58.807,63.388 49.135,59.241L50.233,51.387Z" style="fill:#fff;stroke:#000;stroke-width:1px;"/><path d="M51.603,43.524C61.169,47.751 66.951,47.759 76.195,43.524L77.242,51.128C67.849,54.929 59.904,55.142 50.54,51.128L51.603,43.524Z" style="fill:#171717;stroke:#000;stroke-width:1px;"/><ellipse cx="58.633" cy="20.106" rx="2.733" ry="2.803" style="fill:#ffd38f;stroke:#000;stroke-width:1px;"/><ellipse cx="69.23" cy="20.183" rx="2.733" ry="2.803" style="fill:#ffd38f;stroke:#000;stroke-width:1px;"/></g><rect x="0" y="107.848" width="118.823" height="37.152" style="fill:#c2c2c2;"/><ellipse cx="96.944" cy="124.542" rx="10.589" ry="10.217" style="fill:#dbdbdb;stroke:#363636;stroke-width:1.5px;"/><text x="8.405px" y="129.165px" style="font-family:'Futura-Medium', 'Futura', sans-serif;font-weight:500;font-size:10.01px;">CRIMINAL</text></svg>