<?xml version="1.0" encoding="UTF-8" standalone="no"?><!DOCTYPE svg PUBLIC "-//W3C//DTD SVG 1.1//EN" "http://www.w3.org/Graphics/SVG/1.1/DTD/svg11.dtd"><svg width="100%" height="100%" viewBox="0 0 119 145" version="1.1" xmlns="http://www.w3.org/2000/svg" xmlns:xlink="http://www.w3.org/1999/xlink" xml:space="preserve" xmlns:serif="http://www.serif.com/" style="fill-rule:evenodd;clip-rule:evenodd;stroke-linecap:round;stroke-linejoin:round;stroke-miterlimit:1.5;"><g><rect x="0.12" y="0" width="118.88" height="107.926" style="fill:#ebebeb;"/></g><path d="M61.727,22.998C69.315,22.998 75.736,61.654 75.736,80.281C75.736,98.908 69.315,98.43 61.727,98.43C54.139,98.43 46.896,98.908 46.896,80.281C46.896,61.654 54.139,22.998 61.727,22.998Z" style="fill:#47c0a0;stroke:#000;stroke-width:1px;"/><path d="M61.767,22.469C68.727,22.469 74.378,31.706 74.378,39.168C74.378,46.631 68.727,52.69 61.767,52.69C54.806,52.69 49.155,46.631 49.155,39.168C49.155,31.706 54.806,22.469 61.767,22.469Z" style="fill:#ffd38f;stroke:#000;stroke-width:1px;"/><ellipse cx="38.762" cy="50.032" rx="4.213" ry="3.786" style="fill:#c589a9;stroke:#000;stroke-width:1px;"/><path d="M40.367,53.566C41.861,58.02 44.864,59.597 48.897,59.206" style="fill:none;stroke:#000;stroke-width:0.95px;"/><ellipse cx="83.977" cy="48.152" rx="4.213" ry="3.786" style="fill:#c589a9;stroke:#000;stroke-width:1px;"/><path d="M82.372,51.686C80.878,56.139 77.876,57.717 73.842,57.326" style="fill:none;stroke:#000;stroke-width:0.95px;"/><path d="M51.336,29.995C54.338,21.354 58.002,15.03 61.737,15.03C65.472,15.03 68.967,21.354 71.772,29.995C65.444,27.086 58.693,26.721 51.336,29.995Z"/><path d="M72.97,9.973L36.992,15.106L45.075,23.609L81.902,18.271L72.97,9.973Z" style="stroke:#fff;stroke-width:0.55px;"/><path d="M59.386,15.876C59.386,15.876 72.25,12.664 77.291,12.86C82.18,13.049 83.201,18.936 82.206,23.424" style="fill:none;stroke:#47c0a0;stroke-width:0.55px;"/><path d="M82.372,23.477C83.262,23.518 83.791,26.446 83.684,27.841C83.576,29.235 82.826,29.164 81.936,29.123C81.045,29.082 80.193,29.079 80.301,27.685C80.409,26.291 81.482,23.436 82.372,23.477Z" style="fill:#47c0a0;stroke:#000;stroke-width:0.65px;"/><path d="M82.358,22.844C82.996,22.873 83.483,23.303 83.445,23.803C83.406,24.303 82.856,24.685 82.218,24.656C81.579,24.626 81.092,24.197 81.131,23.696C81.17,23.196 81.72,22.814 82.358,22.844Z" style="fill:#fff;stroke:#000;stroke-width:0.65px;"/><path d="M46.774,89.584C46.692,89.287 46.621,88.991 46.562,88.697C44.492,78.381 49.451,45.246 50.845,47.114C54.317,50.51 54.813,51.179 57.299,51.73C55.839,64.081 56.075,79.526 57.299,92.08C53.822,92.777 50.313,91.898 46.774,89.584Z" style="fill:#c589a9;stroke:#000;stroke-width:0.65px;"/><path d="M75.955,89.888C76.037,89.59 76.108,89.294 76.167,89C78.237,78.684 73.278,45.549 71.884,47.417C68.413,50.813 67.916,51.482 65.43,52.033C66.89,64.384 66.655,79.829 65.43,92.383C68.907,93.08 72.417,92.201 75.955,89.888Z" style="fill:#c589a9;stroke:#000;stroke-width:0.65px;"/><rect x="0" y="107.946" width="118.927" height="37.054" style="fill:#c2c2c2;"/><ellipse cx="98.453" cy="128.368" rx="10.599" ry="10.19" style="fill:#dbdbdb;stroke:#363636;stroke-width:1.5px;"/><text x="7.951px" y="131.802px" style="font-family:'Futura-Medium', 'Futura', sans-serif;font-weight:500;font-size:9.984px;">EDUC<tspan x="35.465px 42.459px 47.287px " y="131.802px 131.802px 131.802px ">ATI</tspan>ON</text></svg>