<?xml version="1.0" encoding="UTF-8" standalone="no"?><!DOCTYPE svg PUBLIC "-//W3C//DTD SVG 1.1//EN" "http://www.w3.org/Graphics/SVG/1.1/DTD/svg11.dtd"><svg width="100%" height="100%" viewBox="0 0 119 145" version="1.1" xmlns="http://www.w3.org/2000/svg" xmlns:xlink="http://www.w3.org/1999/xlink" xml:space="preserve" xmlns:serif="http://www.serif.com/" style="fill-rule:evenodd;clip-rule:evenodd;stroke-linecap:round;stroke-linejoin:round;stroke-miterlimit:1.5;"><rect x="0" y="0" width="118.919" height="107.925" style="fill:#ebebeb;"/><g><path d="M51.03,55.356C53.822,40.588 58.543,26.309 63.405,26.309C68.266,26.309 72.652,40.588 75.2,55.356L51.03,55.356Z" style="fill:#47c0a0;stroke:#000;stroke-width:1px;"/><path d="M62.905,7.656C70.165,7.656 76.059,18.608 76.059,27.456C76.059,36.304 70.165,43.488 62.905,43.488C55.645,43.488 49.751,36.304 49.751,27.456C49.751,18.608 55.645,7.656 62.905,7.656Z" style="fill:#ffd38f;stroke:#000;stroke-width:1px;"/><path d="M32.01,78.49C34.802,63.722 39.524,49.443 44.385,49.443C49.247,49.443 53.633,63.722 56.181,78.49L32.01,78.49Z" style="fill:#47c0a0;stroke:#000;stroke-width:1px;"/><path d="M43.886,30.79C51.146,30.79 57.04,41.742 57.04,50.59C57.04,59.438 51.146,66.622 43.886,66.622C36.626,66.622 30.732,59.438 30.732,50.59C30.732,41.742 36.626,30.79 43.886,30.79Z" style="fill:#b8945d;stroke:#000;stroke-width:1px;"/><path d="M70.636,77.745C73.428,62.977 78.149,48.697 83.011,48.697C87.872,48.697 92.258,62.977 94.806,77.745L70.636,77.745Z" style="fill:#47c0a0;stroke:#000;stroke-width:1px;"/><path d="M82.511,30.045C89.771,30.045 95.665,40.997 95.665,49.845C95.665,58.693 89.771,65.877 82.511,65.877C75.251,65.877 69.357,58.693 69.357,49.845C69.357,40.997 75.251,30.045 82.511,30.045Z" style="fill:#613f09;stroke:#000;stroke-width:1px;"/><g><path d="M51.992,93.817C54.784,79.048 59.505,64.769 64.367,64.769C69.228,64.769 73.614,79.048 76.162,93.817L51.992,93.817Z" style="fill:#47c0a0;stroke:#000;stroke-width:1px;"/><path d="M63.867,46.117C71.127,46.117 77.021,57.068 77.021,65.916C77.021,74.765 71.127,81.948 63.867,81.948C56.607,81.948 50.713,74.765 50.713,65.916C50.713,57.068 56.607,46.117 63.867,46.117Z" style="fill:#7b4b00;stroke:#000;stroke-width:1px;"/></g></g><rect x="0.034" y="107.946" width="118.966" height="37.054" style="fill:#c2c2c2;"/><ellipse cx="99.129" cy="124.596" rx="10.602" ry="10.19" style="fill:#dbdbdb;stroke:#363636;stroke-width:1.5px;"/><text x="3.88px" y="129.207px" style="font-family:'Futura-Medium', 'Futura', sans-serif;font-weight:500;font-size:9.984px;">ETHNIC<tspan x="40.134px 43.087px 48.406px " y="129.207px 129.207px 129.207px ">ITY</tspan></text></svg>