<?xml version="1.0" encoding="UTF-8" standalone="no"?><!DOCTYPE svg PUBLIC "-//W3C//DTD SVG 1.1//EN" "http://www.w3.org/Graphics/SVG/1.1/DTD/svg11.dtd"><svg width="100%" height="100%" viewBox="0 0 119 145" version="1.1" xmlns="http://www.w3.org/2000/svg" xmlns:xlink="http://www.w3.org/1999/xlink" xml:space="preserve" xmlns:serif="http://www.serif.com/" style="fill-rule:evenodd;clip-rule:evenodd;stroke-linecap:round;stroke-linejoin:round;stroke-miterlimit:1.5;"><rect x="0" y="0" width="118.776" height="108.102" style="fill:#ebebeb;"/><path d="M30.565,32.814C35.876,32.814 40.37,63.659 40.37,78.523C40.37,93.386 35.876,93.005 30.565,93.005C25.253,93.005 20.184,93.386 20.184,78.523C20.184,63.659 25.253,32.814 30.565,32.814Z" style="fill:#47c0a0;stroke:#000;stroke-width:1px;"/><path d="M30.592,32.392C35.464,32.392 39.42,39.762 39.42,45.717C39.42,51.672 35.464,56.506 30.592,56.506C25.72,56.506 21.765,51.672 21.765,45.717C21.765,39.762 25.72,32.392 30.592,32.392Z" style="fill:#ffd38f;stroke:#000;stroke-width:1px;"/><path d="M40.225,72.287C40.362,74.596 40.435,76.744 40.435,78.633C40.435,93.496 35.941,93.115 30.63,93.115C25.318,93.115 20.248,93.496 20.248,78.633C20.248,76.744 20.33,74.596 20.484,72.287C26.869,74.611 33.446,74.647 40.225,72.287Z" style="fill:#c589a9;stroke:#000;stroke-width:1px;"/><ellipse cx="14.49" cy="54.386" rx="2.949" ry="3.021" style="fill:#c589a9;stroke:#000;stroke-width:1px;"/><path d="M15.614,57.206C16.66,60.759 18.761,62.018 21.585,61.706" style="fill:none;stroke:#000;stroke-width:0.95px;"/><ellipse cx="46.138" cy="52.885" rx="2.949" ry="3.021" style="fill:#c589a9;stroke:#000;stroke-width:1px;"/><path d="M45.015,55.705C43.969,59.259 41.868,60.518 39.044,60.206" style="fill:none;stroke:#000;stroke-width:0.95px;"/><path d="M62.085,14.069C68.979,14.069 74.812,54.104 74.812,73.395C74.812,92.686 68.979,92.191 62.085,92.191C55.192,92.191 48.612,92.686 48.612,73.395C48.612,54.104 55.192,14.069 62.085,14.069Z" style="fill:#47c0a0;stroke:#000;stroke-width:1px;"/><path d="M62.121,13.521C68.445,13.521 73.578,23.087 73.578,30.816C73.578,38.545 68.445,44.82 62.121,44.82C55.798,44.82 50.664,38.545 50.664,30.816C50.664,23.087 55.798,13.521 62.121,13.521Z" style="fill:#ffd38f;stroke:#000;stroke-width:1px;"/><path d="M74.623,65.302C74.802,68.299 74.896,71.086 74.896,73.538C74.896,92.829 69.063,92.334 62.17,92.334C55.276,92.334 48.696,92.829 48.696,73.538C48.696,71.086 48.802,68.299 49.002,65.302C57.288,68.318 65.825,68.365 74.623,65.302Z" style="fill:#c589a9;stroke:#000;stroke-width:1px;"/><ellipse cx="41.222" cy="42.067" rx="3.828" ry="3.921" style="fill:#c589a9;stroke:#000;stroke-width:1px;"/><path d="M42.681,45.728C44.038,50.34 46.765,51.973 50.43,51.569" style="fill:none;stroke:#000;stroke-width:0.95px;"/><ellipse cx="82.298" cy="40.12" rx="3.828" ry="3.921" style="fill:#c589a9;stroke:#000;stroke-width:1px;"/><path d="M80.84,43.78C79.483,48.392 76.755,50.026 73.091,49.621" style="fill:none;stroke:#000;stroke-width:0.95px;"/><path d="M92.353,31.49C97.795,31.49 102.401,63.099 102.401,78.33C102.401,93.562 97.795,93.171 92.353,93.171C86.91,93.171 81.715,93.562 81.715,78.33C81.715,63.099 86.91,31.49 92.353,31.49Z" style="fill:#47c0a0;stroke:#000;stroke-width:1px;"/><path d="M92.381,31.058C97.374,31.058 101.427,38.61 101.427,44.712C101.427,50.815 97.374,55.769 92.381,55.769C87.388,55.769 83.335,50.815 83.335,44.712C83.335,38.61 87.388,31.058 92.381,31.058Z" style="fill:#ffd38f;stroke:#000;stroke-width:1px;"/><path d="M102.252,71.94C102.393,74.307 102.467,76.507 102.467,78.443C102.467,93.674 97.862,93.283 92.419,93.283C86.977,93.283 81.781,93.674 81.781,78.443C81.781,76.507 81.865,74.307 82.023,71.94C88.565,74.321 95.305,74.359 102.252,71.94Z" style="fill:#c589a9;stroke:#000;stroke-width:1px;"/><ellipse cx="75.881" cy="53.596" rx="3.022" ry="3.096" style="fill:#c589a9;stroke:#000;stroke-width:1px;"/><path d="M77.032,56.486C78.104,60.127 80.257,61.417 83.15,61.097" style="fill:none;stroke:#000;stroke-width:0.95px;"/><ellipse cx="108.312" cy="52.058" rx="3.022" ry="3.096" style="fill:#c589a9;stroke:#000;stroke-width:1px;"/><path d="M107.161,54.948C106.089,58.59 103.936,59.879 101.042,59.56" style="fill:none;stroke:#000;stroke-width:0.95px;"/><rect x="0.139" y="107.885" width="118.823" height="37.115" style="fill:#c2c2c2;"/><ellipse cx="98.195" cy="124.17" rx="10.589" ry="10.207" style="fill:#dbdbdb;stroke:#363636;stroke-width:1.5px;"/><text x="3.996px" y="132.165px" style="font-family:'Futura-Medium', 'Futura', sans-serif;font-weight:500;font-size:10px;">F<tspan x="8.581px 15.988px " y="132.165px 132.165px ">AM</tspan>IL<tspan x="32.345px " y="132.165px ">Y</tspan></text></svg>