<?xml version="1.0" encoding="UTF-8" standalone="no"?><!DOCTYPE svg PUBLIC "-//W3C//DTD SVG 1.1//EN" "http://www.w3.org/Graphics/SVG/1.1/DTD/svg11.dtd"><svg width="100%" height="100%" viewBox="0 0 120 146" version="1.1" xmlns="http://www.w3.org/2000/svg" xmlns:xlink="http://www.w3.org/1999/xlink" xml:space="preserve" xmlns:serif="http://www.serif.com/" style="fill-rule:evenodd;clip-rule:evenodd;stroke-linecap:round;stroke-linejoin:round;stroke-miterlimit:1.5;"><rect x="0.5" y="0.5" width="119" height="107.629" style="fill:#ebebeb;stroke:#fff;stroke-width:1px;"/><path d="M75.41,41.497C85.026,41.497 92.833,55.975 92.833,67.673C92.833,79.37 85.026,84.001 75.41,84.001C65.794,84.001 57.988,79.37 57.988,67.673C57.988,55.975 65.794,41.497 75.41,41.497Z" style="fill:#ffd38f;stroke:#000;stroke-width:1px;"/><path d="M68.912,44.106C70.909,39.59 62.713,36.593 62.201,34.955C61.899,33.988 64.719,34.713 65.84,34.28C67.075,33.802 68.634,32.091 69.611,32.091C70.587,32.091 70.855,34.28 71.699,34.28C72.543,34.28 73.651,31.845 74.675,32.091C75.698,32.337 76.574,35.755 77.838,35.755C79.101,35.755 81.097,32.091 82.254,32.091C83.411,32.091 83.761,35.568 84.78,35.755C85.799,35.943 87.769,32.953 88.366,33.216C88.964,33.48 88.804,36.008 88.366,37.336C87.769,39.151 83.045,41.123 84.78,44.106C81.567,45.105 82.12,45.872 74.675,44.106C72.778,43.657 71.154,42.46 68.912,44.106Z" style="fill:#ffd38f;stroke:#000;stroke-width:1px;"/><path d="M68.488,44.06C69.711,43.656 71.158,42.847 72.155,42.847C73.027,42.847 73.615,43.883 74.469,44.06C75.44,44.263 76.833,43.845 77.985,44.06C79.434,44.332 81.825,46.115 83.157,45.688C84.49,45.26 86.258,44.176 87.944,44.06C89.853,43.93 92.89,46.41 95.768,47.545" style="fill:none;stroke:#000;stroke-width:1px;"/><path d="M49.184,33.287C61.282,33.287 71.105,51.503 71.105,66.221C71.105,80.938 61.282,86.765 49.184,86.765C37.086,86.765 27.263,80.938 27.263,66.221C27.263,51.503 37.086,33.287 49.184,33.287Z" style="fill:#ffd38f;stroke:#000;stroke-width:1px;"/><path d="M41.008,36.57C43.52,30.888 33.209,27.117 32.564,25.057C32.184,23.839 35.732,24.752 37.143,24.207C38.697,23.606 40.659,21.453 41.887,21.453C43.116,21.453 43.453,24.207 44.514,24.207C45.576,24.207 46.971,21.144 48.258,21.453C49.545,21.762 50.648,26.063 52.238,26.063C53.827,26.063 56.339,21.453 57.795,21.453C59.25,21.453 59.691,25.827 60.972,26.063C62.254,26.299 64.733,22.537 65.485,22.868C66.237,23.2 66.035,26.381 65.485,28.051C64.733,30.335 58.79,32.817 60.972,36.57C56.93,37.827 57.625,38.791 48.258,36.57C45.872,36.004 43.828,34.499 41.008,36.57Z" style="fill:#ffd38f;stroke:#000;stroke-width:1px;"/><path d="M40.475,36.512C42.013,36.004 43.834,34.986 45.088,34.986C46.185,34.986 46.925,36.289 47.999,36.512C49.222,36.767 50.974,36.241 52.424,36.512C54.246,36.854 57.255,39.097 58.931,38.56C60.607,38.022 62.833,36.658 64.953,36.512C67.356,36.348 71.176,39.468 74.798,40.897" style="fill:none;stroke:#000;stroke-width:1px;"/><rect x="0.72" y="108.594" width="118.715" height="36.906" style="fill:#c2c2c2;"/><ellipse cx="97.515" cy="126.618" rx="10.58" ry="10.15" style="fill:#dbdbdb;stroke:#363636;stroke-width:1.5px;"/><text x="4.658px" y="131.232px" style="font-family:'Futura-Medium', 'Futura', sans-serif;font-weight:500;font-size:9.944px;">FIN<tspan x="21.176px " y="131.232px ">A</tspan>NCES</text><path id="apound" d="M47.226,60.251L51.796,60.778L51.509,63.241L47.957,62.831C48.1,63.889 48.148,64.62 48.101,65.023C48.048,65.486 47.808,66.27 47.381,67.374L47.6,67.476C47.911,67.624 48.195,67.762 48.453,67.889C48.71,68.015 48.945,68.132 49.158,68.238C50.336,68.874 51.208,69.225 51.774,69.29C52.21,69.34 52.607,69.233 52.966,68.968C53.157,68.827 53.373,68.622 53.615,68.354C53.856,68.086 54.129,67.749 54.432,67.345L57.059,69.364C56.213,70.726 55.356,71.653 54.489,72.145C53.609,72.656 52.581,72.844 51.407,72.709C50.557,72.611 49.296,72.164 47.624,71.369C46.009,70.529 44.862,70.07 44.184,69.992C43.627,69.928 43.172,70.008 42.817,70.233C42.463,70.457 42.034,70.969 41.531,71.769L38.672,69.892C39.788,68.5 40.649,67.624 41.255,67.265C41.962,66.826 42.865,66.609 43.962,66.613C44.298,65.845 44.503,65.138 44.578,64.494C44.659,63.799 44.56,63.103 44.282,62.407L40.274,61.945L40.561,59.482L43.309,59.799C42.553,57.741 42.256,56.022 42.417,54.642C42.65,52.637 43.608,51.017 45.291,49.782C46.993,48.549 48.928,48.058 51.094,48.307C53.27,48.558 54.974,49.475 56.205,51.056C57.449,52.619 57.942,54.513 57.683,56.74L54.056,57.623C54.252,55.941 54.217,54.742 53.952,54.028C53.439,52.611 52.353,51.807 50.693,51.615C49.469,51.474 48.415,51.756 47.533,52.46C46.652,53.155 46.14,54.117 45.997,55.346C45.877,56.374 46.242,57.906 47.092,59.944C47.109,59.977 47.128,60.017 47.148,60.066C47.168,60.114 47.194,60.175 47.226,60.251Z" style="fill:#47c0a0;fill-rule:nonzero;stroke:#000;stroke-width:1px;stroke-linecap:butt;stroke-miterlimit:1.41421;"/><path id="apound2" d="M78.434,62.312L81.514,62.667L81.286,64.625L78.892,64.349C78.974,65.186 78.997,65.765 78.959,66.085C78.917,66.453 78.743,67.079 78.44,67.961L78.587,68.038C78.795,68.152 78.985,68.257 79.157,68.354C79.329,68.45 79.486,68.54 79.629,68.621C80.415,69.109 81,69.376 81.382,69.42C81.675,69.453 81.945,69.363 82.191,69.148C82.322,69.033 82.471,68.868 82.638,68.652C82.805,68.435 82.993,68.165 83.204,67.84L84.951,69.405C84.36,70.498 83.769,71.245 83.176,71.647C82.574,72.065 81.877,72.228 81.086,72.136C80.513,72.07 79.667,71.733 78.549,71.126C77.469,70.482 76.701,70.133 76.244,70.081C75.869,70.037 75.56,70.107 75.317,70.29C75.075,70.473 74.778,70.885 74.426,71.527L72.521,70.077C73.294,68.957 73.888,68.251 74.303,67.958C74.787,67.6 75.399,67.415 76.141,67.403C76.378,66.789 76.527,66.226 76.586,65.714C76.651,65.161 76.594,64.611 76.415,64.063L73.714,63.752L73.942,61.794L75.794,62.007C75.312,60.386 75.135,59.026 75.263,57.929C75.448,56.336 76.118,55.038 77.272,54.035C78.439,53.033 79.753,52.617 81.213,52.785C82.68,52.954 83.818,53.658 84.628,54.895C85.447,56.118 85.753,57.614 85.547,59.383L83.085,60.134C83.241,58.797 83.234,57.847 83.064,57.283C82.738,56.166 82.015,55.544 80.897,55.414C80.071,55.319 79.355,55.557 78.75,56.128C78.145,56.692 77.786,57.462 77.672,58.439C77.577,59.255 77.802,60.466 78.348,62.071C78.359,62.096 78.371,62.128 78.384,62.166C78.397,62.204 78.413,62.253 78.434,62.312Z" style="fill:#47c0a0;fill-rule:nonzero;stroke:#000;stroke-width:1px;stroke-linecap:butt;stroke-miterlimit:1.41421;"/></svg>