<?xml version="1.0" encoding="UTF-8" standalone="no"?><!DOCTYPE svg PUBLIC "-//W3C//DTD SVG 1.1//EN" "http://www.w3.org/Graphics/SVG/1.1/DTD/svg11.dtd"><svg width="100%" height="100%" viewBox="0 0 119 145" version="1.1" xmlns="http://www.w3.org/2000/svg" xmlns:xlink="http://www.w3.org/1999/xlink" xml:space="preserve" xmlns:serif="http://www.serif.com/" style="fill-rule:evenodd;clip-rule:evenodd;stroke-linecap:round;stroke-linejoin:round;stroke-miterlimit:1.5;"><rect x="0" y="0" width="118.013" height="107.177" style="fill:#ebebeb;"/><g><path d="M60.685,12.554C67.947,12.554 74.091,54.636 74.091,74.914C74.091,95.192 67.947,94.671 60.685,94.671C53.424,94.671 46.492,95.192 46.492,74.914C46.492,54.636 53.424,12.554 60.685,12.554Z" style="fill:#171717;stroke:#000;stroke-width:1px;"/><ellipse cx="38.708" cy="41.984" rx="4.032" ry="4.121" style="fill:#171717;stroke:#000;stroke-width:1px;"/><path d="M40.244,45.831C41.674,50.679 44.547,52.396 48.407,51.971" style="fill:none;stroke:#000;stroke-width:0.95px;"/><ellipse cx="81.978" cy="39.937" rx="4.032" ry="4.121" style="fill:#171717;stroke:#000;stroke-width:1px;"/><ellipse cx="81.628" cy="41.316" rx="2.4" ry="2.454" style="fill:#fff;stroke:#000;stroke-width:1px;"/><ellipse cx="39.576" cy="43.76" rx="2.4" ry="2.454" style="fill:#fff;stroke:#000;stroke-width:1px;"/><path d="M80.843,43.782C79.413,48.63 76.54,50.347 72.68,49.922" style="fill:none;stroke:#000;stroke-width:0.95px;"/><path d="M60.723,11.978C67.384,11.978 72.792,22.033 72.792,30.157C72.792,38.281 67.384,44.877 60.723,44.877C54.062,44.877 48.653,38.281 48.653,30.157C48.653,22.033 54.062,11.978 60.723,11.978Z" style="fill:#171717;stroke:#000;stroke-width:1px;"/><path d="M60.832,16.768C66.232,16.768 70.616,25.328 70.616,32.245C70.616,39.161 66.232,44.776 60.832,44.776C55.432,44.776 51.047,39.161 51.047,32.245C51.047,25.328 55.432,16.768 60.832,16.768Z" style="fill:#fff;stroke:#000;stroke-width:1px;"/><path d="M59.527,53.145C59.527,52.152 63.06,51.346 65.914,51.346C68.769,51.346 71.087,52.152 71.087,53.145C71.087,54.138 68.769,54.944 65.914,54.944C63.06,54.944 59.527,54.138 59.527,53.145Z" style="fill:#fff;stroke:#000;stroke-width:1px;"/><path d="M59.832,59.716C59.832,58.723 63.365,57.917 66.22,57.917C69.075,57.917 71.392,58.723 71.392,59.716C71.392,60.709 69.075,61.515 66.22,61.515C63.365,61.515 59.832,60.709 59.832,59.716Z" style="fill:#fff;stroke:#000;stroke-width:1px;"/><path d="M59.88,66.154C59.88,65.161 63.413,64.355 66.268,64.355C69.122,64.355 71.44,65.161 71.44,66.154C71.44,67.147 69.122,67.953 66.268,67.953C63.413,67.953 59.88,67.147 59.88,66.154Z" style="fill:#fff;stroke:#000;stroke-width:1px;"/><path d="M49.27,53.242C49.27,52.249 52.803,51.443 55.658,51.443C58.512,51.443 60.83,52.249 60.83,53.242C60.83,54.235 58.512,55.041 55.658,55.041C52.803,55.041 49.27,54.235 49.27,53.242Z" style="fill:#fff;stroke:#000;stroke-width:1px;"/><path d="M49.576,59.813C49.576,58.82 53.109,58.014 55.963,58.014C58.818,58.014 61.136,58.82 61.136,59.813C61.136,60.806 58.818,61.612 55.963,61.612C53.109,61.612 49.576,60.806 49.576,59.813Z" style="fill:#fff;stroke:#000;stroke-width:1px;"/><path d="M49.623,66.251C49.623,65.258 53.156,64.452 56.011,64.452C58.866,64.452 61.183,65.258 61.183,66.251C61.183,67.244 58.866,68.05 56.011,68.05C53.156,68.05 49.623,67.244 49.623,66.251Z" style="fill:#fff;stroke:#000;stroke-width:1px;"/><path d="M60.712,44.972C62.142,44.972 63.303,54.968 63.303,63.044C63.303,71.12 62.142,77.677 60.712,77.677C59.281,77.677 58.12,71.12 58.12,63.044C58.12,54.968 59.281,44.972 60.712,44.972Z" style="fill:#fff;stroke:#000;stroke-width:1px;"/></g><rect x="0.323" y="108.011" width="118.677" height="36.989" style="fill:#c2c2c2;"/><ellipse cx="101.197" cy="125.152" rx="10.576" ry="10.172" style="fill:#dbdbdb;stroke:#363636;stroke-width:1.5px;"/><text x="6.918px" y="132.282px" style="font-family:'Futura-Medium', 'Futura', sans-serif;font-weight:500;font-size:9.966px;">HEAL<tspan x="31.229px 36.047px " y="132.282px 132.282px ">TH</tspan></text></svg>