<?xml version="1.0" encoding="UTF-8" standalone="no"?><!DOCTYPE svg PUBLIC "-//W3C//DTD SVG 1.1//EN" "http://www.w3.org/Graphics/SVG/1.1/DTD/svg11.dtd"><svg width="100%" height="100%" viewBox="0 0 119 145" version="1.1" xmlns="http://www.w3.org/2000/svg" xmlns:xlink="http://www.w3.org/1999/xlink" xml:space="preserve" xmlns:serif="http://www.serif.com/" style="fill-rule:evenodd;clip-rule:evenodd;stroke-linecap:round;stroke-linejoin:round;stroke-miterlimit:1.5;"><rect x="0.031" y="0" width="118.953" height="107.727" style="fill:#ebebeb;"/><path d="M82.668,60.015C83.933,55.977 81.68,51.681 77.639,50.427L31.656,36.156C27.615,34.902 23.307,37.162 22.042,41.199L13.656,67.951C12.391,71.988 14.644,76.284 18.685,77.538L64.668,91.809C68.709,93.063 73.017,90.803 74.282,86.766L82.668,60.015Z" style="fill:#fff;stroke:#000;stroke-width:1px;"/><path d="M78.945,60.826C80.039,57.335 78.091,53.621 74.597,52.536L32.743,39.547C29.249,38.463 25.524,40.416 24.43,43.907L17.179,67.038C16.085,70.529 18.033,74.244 21.527,75.328L63.381,88.317C66.875,89.402 70.6,87.448 71.694,83.957L78.945,60.826Z" style="fill:#ccc;"/><path d="M70.819,56.869C68.995,59.654 66.853,60.194 64.495,59.198" style="fill:none;stroke:#000;stroke-width:0.95px;"/><path d="M27.338,57.618C29.776,49.649 43.87,46.85 53.657,49.815C63.445,52.78 69.412,61.656 66.974,69.624C64.536,77.593 55.377,79.551 45.589,76.586C35.801,73.621 24.901,65.586 27.338,57.618Z" style="fill:#989591;stroke:#000;stroke-width:1px;"/><path d="M31.851,63.65C35.1,64.62 36.928,68.096 35.93,71.408C34.932,74.72 31.483,76.622 28.234,75.653C24.984,74.683 23.156,71.207 24.155,67.894C25.153,64.582 28.601,62.68 31.851,63.65Z" style="fill:#d4c9b7;stroke:#000;stroke-width:1px;"/><path d="M60.161,57.332C63.489,58.325 65.427,61.665 64.486,64.786C63.546,67.906 61.022,66.509 57.695,65.516C54.367,64.523 51.488,64.308 52.428,61.188C53.369,58.067 56.834,56.339 60.161,57.332Z" style="fill:#c4c4c4;stroke:#000;stroke-width:1px;"/><path d="M40.693,51.528C44.35,52.62 46.556,56.039 45.616,59.16C44.675,62.281 41.884,60.804 38.227,59.712C34.569,58.621 31.422,58.326 32.362,55.205C33.303,52.085 37.036,50.437 40.693,51.528Z" style="fill:#c4c4c4;stroke:#000;stroke-width:1px;"/><path d="M61.659,71.805C58.409,70.835 54.961,72.737 53.962,76.049C52.964,79.362 54.792,82.838 58.041,83.808C61.291,84.777 64.74,82.875 65.738,79.563C66.736,76.251 64.908,72.775 61.659,71.805Z" style="fill:#d4c9b7;stroke:#000;stroke-width:1px;"/><path d="M49.429,75.724C47.626,73.83 48.178,65.513 49.903,62.994" style="fill:#989591;stroke:#000;stroke-width:0.95px;"/><path d="M108.896,27.02C108.896,22.791 105.462,19.357 101.233,19.357L53.052,19.357C48.823,19.357 45.389,22.791 45.389,27.02L45.389,55.042C45.389,59.271 48.823,62.705 53.052,62.705L101.233,62.705C105.462,62.705 108.896,59.271 108.896,55.042L108.896,27.02Z" style="fill:#fff;stroke:#000;stroke-width:1px;"/><path d="M105.584,28.897C105.584,25.241 102.616,22.272 98.959,22.272L55.105,22.272C51.448,22.272 48.479,25.241 48.479,28.897L48.479,53.127C48.479,56.784 51.448,59.753 55.105,59.753L98.959,59.753C102.616,59.753 105.584,56.784 105.584,53.127L105.584,28.897Z" style="fill:#ccc;"/><path d="M73.825,30.885L93.392,59.426L54.257,59.426L73.825,30.885Z" style="fill:#7b7367;"/><path d="M93.946,30.251C96.411,30.251 98.497,44.496 98.497,51.36C98.497,58.225 96.411,58.049 93.946,58.049C91.481,58.049 89.128,58.225 89.128,51.36C89.128,44.496 91.481,30.251 93.946,30.251Z" style="fill:#cdc8c0;stroke:#000;stroke-width:1px;"/><path d="M93.959,30.056C96.22,30.056 98.056,33.46 98.056,36.21C98.056,38.96 96.22,41.193 93.959,41.193C91.698,41.193 89.862,38.96 89.862,36.21C89.862,33.46 91.698,30.056 93.959,30.056Z" style="fill:#cdc8c0;stroke:#000;stroke-width:1px;"/><path d="M98.43,48.481C98.494,49.547 98.527,50.539 98.527,51.411C98.527,58.276 96.442,58.099 93.977,58.099C91.512,58.099 89.159,58.276 89.159,51.411C89.159,50.539 89.197,49.547 89.268,48.481C92.231,49.554 95.284,49.571 98.43,48.481Z" style="fill:#b2a38c;stroke:#000;stroke-width:1px;"/><path d="M84.06,43.766C84.34,43.068 85.151,42.732 85.87,43.017C86.588,43.303 86.945,44.101 86.665,44.799C86.385,45.498 85.575,45.833 84.856,45.548C84.137,45.263 83.78,44.464 84.06,43.766Z" style="fill:#cdc8c0;stroke:#000;stroke-width:1px;"/><path d="M86.772,44.283C88.483,44.442 89.387,43.756 89.738,42.491" style="fill:#cdc8c0;stroke:#000;stroke-width:0.95px;"/><path d="M103.418,43.418C103.138,42.72 102.327,42.384 101.609,42.67C100.89,42.955 100.533,43.753 100.813,44.451C101.093,45.15 101.904,45.485 102.623,45.2C103.341,44.915 103.698,44.116 103.418,43.418Z" style="fill:#cdc8c0;stroke:#000;stroke-width:1px;"/><path d="M100.707,43.935C98.995,44.094 98.091,43.408 97.74,42.144" style="fill:#cdc8c0;stroke:#000;stroke-width:0.95px;"/><path d="M77.198,30.638C79.663,30.638 81.748,44.883 81.748,51.747C81.748,58.612 79.663,58.435 77.198,58.435C74.733,58.435 72.38,58.612 72.38,51.747C72.38,44.883 74.733,30.638 77.198,30.638Z" style="fill:#cdc8c0;stroke:#000;stroke-width:1px;"/><path d="M77.21,30.443C79.472,30.443 81.307,33.847 81.307,36.597C81.307,39.347 79.472,41.58 77.21,41.58C74.949,41.58 73.113,39.347 73.113,36.597C73.113,33.847 74.949,30.443 77.21,30.443Z" style="fill:#cdc8c0;stroke:#000;stroke-width:1px;"/><path d="M81.681,48.867C81.745,49.934 81.779,50.926 81.779,51.798C81.779,58.662 79.693,58.486 77.228,58.486C74.763,58.486 72.41,58.662 72.41,51.798C72.41,50.926 72.448,49.934 72.519,48.867C75.482,49.941 78.535,49.958 81.681,48.867Z" style="fill:#655e52;stroke:#000;stroke-width:1px;"/><path d="M67.311,44.153C67.591,43.454 68.402,43.119 69.121,43.404C69.84,43.689 70.196,44.488 69.916,45.186C69.636,45.884 68.826,46.22 68.107,45.934C67.388,45.649 67.032,44.851 67.311,44.153Z" style="fill:#cdc8c0;stroke:#000;stroke-width:1px;"/><path d="M70.023,44.67C71.735,44.829 72.638,44.143 72.989,42.878" style="fill:#cdc8c0;stroke:#000;stroke-width:0.95px;"/><path d="M86.669,43.805C86.389,43.107 85.579,42.771 84.86,43.056C84.141,43.342 83.785,44.14 84.064,44.838C84.344,45.536 85.155,45.872 85.874,45.587C86.593,45.301 86.949,44.503 86.669,43.805Z" style="fill:#cdc8c0;stroke:#000;stroke-width:1px;"/><path d="M83.958,44.322C82.246,44.481 81.342,43.795 80.991,42.53" style="fill:#cdc8c0;stroke:#000;stroke-width:0.95px;"/><path d="M60.34,31.011C62.805,31.011 64.89,45.256 64.89,52.12C64.89,58.985 62.805,58.808 60.34,58.808C57.875,58.808 55.522,58.985 55.522,52.12C55.522,45.256 57.875,31.011 60.34,31.011Z" style="fill:#9f8f76;stroke:#000;stroke-width:1px;"/><path d="M60.352,30.816C62.614,30.816 64.449,34.22 64.449,36.97C64.449,39.72 62.614,41.953 60.352,41.953C58.091,41.953 56.255,39.72 56.255,36.97C56.255,34.22 58.091,30.816 60.352,30.816Z" style="fill:#cdc8c0;stroke:#000;stroke-width:1px;"/><path d="M64.823,49.24C64.887,50.307 64.92,51.299 64.92,52.171C64.92,59.035 62.835,58.859 60.37,58.859C57.905,58.859 55.552,59.035 55.552,52.171C55.552,51.299 55.59,50.307 55.661,49.24C58.624,50.314 61.677,50.331 64.823,49.24Z" style="fill:#cdc8c0;stroke:#000;stroke-width:1px;"/><path d="M50.453,44.526C50.733,43.827 51.544,43.492 52.263,43.777C52.981,44.062 53.338,44.861 53.058,45.559C52.778,46.257 51.968,46.593 51.249,46.307C50.53,46.022 50.174,45.224 50.453,44.526Z" style="fill:#cdc8c0;stroke:#000;stroke-width:1px;"/><path d="M53.165,45.043C54.876,45.202 55.78,44.516 56.131,43.251" style="fill:#cdc8c0;stroke:#000;stroke-width:0.95px;"/><path d="M69.811,44.178C69.531,43.48 68.721,43.144 68.002,43.429C67.283,43.715 66.927,44.513 67.206,45.211C67.486,45.909 68.297,46.245 69.016,45.96C69.734,45.674 70.091,44.876 69.811,44.178Z" style="fill:#cdc8c0;stroke:#000;stroke-width:1px;"/><path d="M67.1,44.695C65.388,44.854 64.484,44.168 64.133,42.903" style="fill:#cdc8c0;stroke:#000;stroke-width:0.95px;"/><path d="M60.371,31.109C61.848,31.109 62.595,32.056 62.595,32.774C62.595,33.493 61.848,34.306 60.371,34.306C58.895,34.306 58.074,33.493 58.074,32.774C58.074,32.056 58.895,31.109 60.371,31.109Z" style="fill:#807668;"/><path d="M94.035,40.301C95.005,40.301 95.793,39.545 95.793,40.301C95.793,41.058 95.005,42.295 94.035,42.295C93.065,42.295 92.277,41.058 92.277,40.301C92.277,39.545 93.065,40.301 94.035,40.301Z" style="fill:#766852;"/><rect x="0" y="108.014" width="119" height="36.986" style="fill:#c2c2c2;"/><ellipse cx="99.04" cy="128.399" rx="10.605" ry="10.172" style="fill:#dbdbdb;stroke:#363636;stroke-width:1.5px;"/><text x="6.809px" y="130.612px" style="font-family:'Futura-Medium', 'Futura', sans-serif;font-weight:500;font-size:9.965px;">MY H<tspan x="32.883px 35.837px 41.817px 46.409px 55.358px 61.055px " y="130.612px 130.612px 130.612px 130.612px 130.612px 130.612px ">ISTORY</tspan></text></svg>