<?xml version="1.0" encoding="UTF-8" standalone="no"?><!DOCTYPE svg PUBLIC "-//W3C//DTD SVG 1.1//EN" "http://www.w3.org/Graphics/SVG/1.1/DTD/svg11.dtd"><svg width="100%" height="100%" viewBox="0 0 119 145" version="1.1" xmlns="http://www.w3.org/2000/svg" xmlns:xlink="http://www.w3.org/1999/xlink" xml:space="preserve" xmlns:serif="http://www.serif.com/" style="fill-rule:evenodd;clip-rule:evenodd;stroke-linecap:round;stroke-linejoin:round;stroke-miterlimit:1.5;"><rect x="0.035" y="0" width="118.953" height="107.643" style="fill:#ebebeb;"/><g><path d="M60.114,19.358C66.291,19.358 71.518,55.024 71.518,72.211C71.518,89.398 66.291,88.957 60.114,88.957C53.938,88.957 48.042,89.398 48.042,72.211C48.042,55.024 53.938,19.358 60.114,19.358Z" style="fill:#47c0a0;stroke:#000;stroke-width:1px;"/><path d="M60.147,18.87C65.813,18.87 70.413,27.392 70.413,34.277C70.413,41.163 65.813,46.753 60.147,46.753C54.481,46.753 49.88,41.163 49.88,34.277C49.88,27.392 54.481,18.87 60.147,18.87Z" style="fill:#ffd38f;stroke:#000;stroke-width:1px;"/><path d="M71.349,65.001C71.509,67.671 71.593,70.154 71.593,72.338C71.593,89.525 66.367,89.084 60.19,89.084C54.013,89.084 48.117,89.525 48.117,72.338C48.117,70.154 48.212,67.671 48.391,65.001C55.816,67.688 63.465,67.73 71.349,65.001Z" style="fill:#c589a9;stroke:#000;stroke-width:1px;"/><ellipse cx="41.421" cy="44.301" rx="3.43" ry="3.493" style="fill:#c589a9;stroke:#000;stroke-width:1px;"/><path d="M42.727,47.562C43.943,51.671 46.387,53.126 49.671,52.766" style="fill:none;stroke:#000;stroke-width:0.95px;"/><ellipse cx="78.226" cy="42.566" rx="3.43" ry="3.493" style="fill:#c589a9;stroke:#000;stroke-width:1px;"/><path d="M76.92,45.827C75.703,49.936 73.259,51.391 69.976,51.031" style="fill:none;stroke:#000;stroke-width:0.95px;"/></g><path d="M35.125,12.156L35.125,85.159L30.151,85.159L30.151,12.156L35.125,12.156Z" style="fill:#fff;stroke:#000;stroke-width:0.95px;"/><path d="M89.972,12.276L89.972,85.279L84.997,85.279L84.997,12.276L89.972,12.276Z" style="fill:#fff;stroke:#000;stroke-width:0.95px;"/><rect x="35.159" y="51.136" width="49.721" height="4.616" style="fill:#fff;stroke:#000;stroke-width:0.95px;"/><rect x="28.841" y="11.752" width="62.56" height="5.174" style="fill:#fff;stroke:#000;stroke-width:0.95px;"/><rect x="25.441" y="81.754" width="67.534" height="15.587" style="fill:#47c0a0;stroke:#000;stroke-width:0.95px;"/><rect x="0" y="108.043" width="119" height="36.957" style="fill:#c2c2c2;"/><text x="7.871px" y="130.824px" style="font-family:'Futura-Medium', 'Futura', sans-serif;font-weight:500;font-size:9.958px;">HOM<tspan x="33.793px " y="130.824px ">E</tspan></text><ellipse cx="97.59" cy="126.603" rx="10.605" ry="10.164" style="fill:#dbdbdb;stroke:#363636;stroke-width:1.5px;"/></svg>