<?xml version="1.0" encoding="UTF-8" standalone="no"?><!DOCTYPE svg PUBLIC "-//W3C//DTD SVG 1.1//EN" "http://www.w3.org/Graphics/SVG/1.1/DTD/svg11.dtd"><svg width="100%" height="100%" viewBox="0 0 120 145" version="1.1" xmlns="http://www.w3.org/2000/svg" xmlns:xlink="http://www.w3.org/1999/xlink" xml:space="preserve" xmlns:serif="http://www.serif.com/" style="fill-rule:evenodd;clip-rule:evenodd;stroke-linecap:round;stroke-linejoin:round;stroke-miterlimit:1.5;"><rect x="0" y="0" width="118.776" height="108.102" style="fill:#ebebeb;"/><g><path d="M106.996,42.632C106.142,45.534 104.426,46.562 102.12,46.307" style="fill:none;stroke:#000;stroke-width:0.95px;"/><path d="M69.48,54.594C69.512,47.014 81.004,40.909 90.268,40.947C99.532,40.986 107.027,47.171 106.996,54.75C106.964,62.33 99.532,66.419 90.268,66.381C81.004,66.342 69.449,62.174 69.48,54.594Z" style="fill:#ffd38f;stroke:#000;stroke-width:1px;"/><ellipse cx="74.971" cy="64.38" rx="5.566" ry="5.701" style="fill:#c589a9;stroke:#000;stroke-width:1px;"/><path d="M97.874,45.808C101.019,45.808 103.573,48.215 103.573,51.18C103.573,54.144 101.019,53.583 97.874,53.583C94.728,53.583 92.175,54.144 92.175,51.18C92.175,48.215 94.728,45.808 97.874,45.808Z" style="fill:#47c0a0;stroke:#000;stroke-width:1px;"/><path d="M79.471,45.813C82.929,45.813 85.736,48.22 85.736,51.184C85.736,54.149 82.929,53.588 79.471,53.588C76.014,53.588 73.207,54.149 73.207,51.184C73.207,48.22 76.014,45.813 79.471,45.813Z" style="fill:#47c0a0;stroke:#000;stroke-width:1px;"/><ellipse cx="102.956" cy="63.735" rx="5.566" ry="5.701" style="fill:#c589a9;stroke:#000;stroke-width:1px;"/><path d="M93.373,64.63C91.313,63.448 89.619,56.056 90.456,53.411" style="fill:none;stroke:#000;stroke-width:0.95px;"/></g><g><path d="M73.057,41.118C71.76,45.525 69.154,47.086 65.652,46.699" style="fill:none;stroke:#000;stroke-width:0.95px;"/><path d="M16.082,59.284C16.13,47.773 33.583,38.5 47.652,38.559C61.721,38.617 73.104,48.011 73.056,59.522C73.009,71.033 61.721,77.243 47.652,77.185C33.583,77.126 16.034,70.795 16.082,59.284Z" style="fill:#ffd38f;stroke:#000;stroke-width:1px;"/><ellipse cx="24.421" cy="74.145" rx="8.453" ry="8.659" style="fill:#c589a9;stroke:#000;stroke-width:1px;"/><path d="M59.203,45.941C63.98,45.941 67.859,49.596 67.859,54.099C67.859,58.601 63.98,57.749 59.203,57.749C54.426,57.749 50.548,58.601 50.548,54.099C50.548,49.596 54.426,45.941 59.203,45.941Z" style="fill:#47c0a0;stroke:#000;stroke-width:1px;"/><path d="M31.255,45.948C36.506,45.948 40.769,49.604 40.769,54.106C40.769,58.608 36.506,57.756 31.255,57.756C26.005,57.756 21.742,58.608 21.742,54.106C21.742,49.604 26.005,45.948 31.255,45.948Z" style="fill:#47c0a0;stroke:#000;stroke-width:1px;"/><ellipse cx="66.921" cy="73.166" rx="8.453" ry="8.659" style="fill:#c589a9;stroke:#000;stroke-width:1px;"/><path d="M52.368,74.526C49.24,72.731 46.667,61.504 47.938,57.488" style="fill:none;stroke:#000;stroke-width:0.95px;"/></g><rect x="0.494" y="107.885" width="118.823" height="37.115" style="fill:#c2c2c2;"/><ellipse cx="101.322" cy="124.649" rx="10.589" ry="10.207" style="fill:#dbdbdb;stroke:#363636;stroke-width:1.5px;"/><text x="7.303px" y="132.028px" style="font-family:'Futura-Medium', 'Futura', sans-serif;font-weight:500;font-size:10px;">O<tspan x="15.916px 26.521px " y="132.028px 132.028px ">WN</tspan>ERSHIP</text></svg>