<?xml version="1.0" encoding="UTF-8" standalone="no"?><!DOCTYPE svg PUBLIC "-//W3C//DTD SVG 1.1//EN" "http://www.w3.org/Graphics/SVG/1.1/DTD/svg11.dtd"><svg width="100%" height="100%" viewBox="0 0 119 145" version="1.1" xmlns="http://www.w3.org/2000/svg" xmlns:xlink="http://www.w3.org/1999/xlink" xml:space="preserve" xmlns:serif="http://www.serif.com/" style="fill-rule:evenodd;clip-rule:evenodd;stroke-linecap:round;stroke-linejoin:round;stroke-miterlimit:1.5;"><rect x="0" y="0" width="118.776" height="108.102" style="fill:#ebebeb;"/><path d="M58.442,18.045C65.029,18.045 70.603,56.302 70.603,74.737C70.603,93.172 65.029,92.698 58.442,92.698C51.855,92.698 45.566,93.172 45.566,74.737C45.566,56.302 51.855,18.045 58.442,18.045Z" style="fill:#47c0a0;stroke:#000;stroke-width:1px;"/><path id="waist" d="M70.423,67.003C70.594,69.867 70.684,72.53 70.684,74.873C70.684,93.308 65.11,92.835 58.522,92.835C51.935,92.835 45.647,93.308 45.647,74.873C45.647,72.53 45.749,69.867 45.939,67.003C53.858,69.885 62.015,69.93 70.423,67.003Z" style="fill:#c589a9;stroke:#000;stroke-width:1px;"/><ellipse cx="38.505" cy="44.8" rx="3.658" ry="3.747" style="fill:#c589a9;stroke:#000;stroke-width:1px;"/><path d="M39.899,48.298C41.196,52.705 43.802,54.266 47.304,53.879" style="fill:none;stroke:#000;stroke-width:0.95px;"/><ellipse cx="77.758" cy="42.939" rx="3.658" ry="3.747" style="fill:#c589a9;stroke:#000;stroke-width:1px;"/><path d="M76.364,46.437C75.067,50.844 72.461,52.405 68.959,52.018" style="fill:none;stroke:#000;stroke-width:0.95px;"/><path d="M58.476,17.521C64.519,17.521 69.425,26.662 69.425,34.048C69.425,41.434 64.519,47.43 58.476,47.43C52.433,47.43 47.527,41.434 47.527,34.048C47.527,26.662 52.433,17.521 58.476,17.521Z" style="fill:#ffd38f;stroke:#000;stroke-width:1px;"/><rect x="0.05" y="107.885" width="118.823" height="37.115" style="fill:#e05856;"/><text x="7.824px" y="132.375px" style="font-family:'Futura-Medium', 'Futura', sans-serif;font-weight:500;font-size:10px;fill:#fff;">PHY<tspan x="26.33px 32.16px 35.109px 42.297px 49.704px " y="132.375px 132.375px 132.375px 132.375px 132.375px ">SICAL</tspan></text><ellipse cx="97.413" cy="124.17" rx="10.589" ry="10.207" style="fill:#fff;stroke:#363636;stroke-width:1.5px;"/><text x="89.099px" y="129.501px" style="font-family:'Futura-Medium', 'Futura', sans-serif;font-weight:500;font-size:13.938px;fill:#464646;">1<tspan x="96.864px " y="129.501px ">0</tspan></text></svg>