<?xml version="1.0" encoding="UTF-8" standalone="no"?><!DOCTYPE svg PUBLIC "-//W3C//DTD SVG 1.1//EN" "http://www.w3.org/Graphics/SVG/1.1/DTD/svg11.dtd"><svg width="100%" height="100%" viewBox="0 0 119 145" version="1.1" xmlns="http://www.w3.org/2000/svg" xmlns:xlink="http://www.w3.org/1999/xlink" xml:space="preserve" xmlns:serif="http://www.serif.com/" style="fill-rule:evenodd;clip-rule:evenodd;stroke-linecap:round;stroke-linejoin:round;stroke-miterlimit:1.5;"><rect x="0" y="0" width="118.707" height="108.034" style="fill:#ebebeb;"/><g><path d="M39.822,42.345L42.68,22.053C47.712,24.864 53.116,25.905 59.061,24.36L56.846,40.092" style="fill:none;stroke:#000;stroke-width:2px;"/><path d="M37.691,37.923C39.862,38.229 41.163,41.762 40.789,44.415C40.415,47.069 38.349,48.975 36.178,48.669C34.007,48.363 32.547,45.961 32.921,43.307C33.295,40.654 35.52,37.618 37.691,37.923Z" style="fill:#c589a9;stroke:#000;stroke-width:1px;"/><path d="M54.445,35.333C56.616,35.639 57.916,39.171 57.542,41.825C57.169,44.478 55.102,46.384 52.931,46.079C50.76,45.773 49.301,43.37 49.674,40.717C50.048,38.063 52.273,35.027 54.445,35.333Z" style="fill:#c589a9;stroke:#000;stroke-width:1px;"/></g><g><path d="M98.724,27.598C102.249,28.212 99.659,45.76 93.119,65.792C87.843,81.952 90.431,96.03 86.905,95.415C83.38,94.801 82.887,80.706 85.805,63.959C88.724,47.212 95.198,26.984 98.724,27.598Z" style="fill:#ffd38f;stroke:#000;stroke-width:1px;"/><path d="M76.528,44.574C83.254,41.375 85.72,35.068 82.858,24.872" style="fill:none;stroke:#000;stroke-width:2px;"/><path d="M76.3,44.979C71.052,39.694 70.865,32.924 77.008,24.298" style="fill:none;stroke:#000;stroke-width:2px;"/><path d="M76.054,44.714L79.547,24.67" style="fill:none;stroke:#000;stroke-width:2px;"/><path d="M76.411,43.33C77.538,43.47 81.44,46.087 74.9,66.119C69.624,82.279 72.212,96.357 68.686,95.742C65.161,95.128 64.668,81.033 67.586,64.286C70.505,47.54 75.387,43.203 76.411,43.33Z" style="fill:#ffd38f;stroke:#000;stroke-width:1px;"/></g><g><path d="M40.632,61.628C44.753,59.79 47.528,57.782 49.691,55.699" style="fill:none;stroke:#000;stroke-width:0.9px;"/><path d="M34.717,61.663C30.596,59.825 27.821,57.818 25.657,55.734" style="fill:none;stroke:#000;stroke-width:0.9px;"/><path d="M36.963,60.787C42.11,60.787 46.288,68.042 46.288,73.903C46.288,79.765 42.11,84.523 36.963,84.523C31.816,84.523 27.638,79.765 27.638,73.903C27.638,68.042 31.816,60.787 36.963,60.787Z" style="fill:#ffd38f;stroke:#000;stroke-width:1px;"/><path d="M35.659,96.628C48.409,96.628 59.01,97.382 58.76,82.117C58.51,66.827 48.409,63.951 35.659,63.951C22.91,63.951 12.4,65.784 12.558,82.117C12.702,96.941 22.91,96.628 35.659,96.628Z" style="fill:#ffd38f;stroke:#000;stroke-width:1px;"/><path d="M33.336,91.644C46.816,91.244 55.608,93.866 55.496,79.586C55.408,68.312 46.569,67.949 33.336,67.553C23.39,67.254 15.182,68.904 15.305,80.946C15.417,91.874 23.39,91.939 33.336,91.644Z" style="fill:#47c0a0;stroke:#000;stroke-width:1px;"/><ellipse cx="48.564" cy="93.489" rx="1.246" ry="1.189" style="fill:#c589a9;stroke:#000;stroke-width:1px;"/></g><rect x="0.246" y="107.909" width="118.754" height="37.091" style="fill:#c2c2c2;"/><text x="2.537px" y="129.191px" style="font-family:'Futura-Medium', 'Futura', sans-serif;font-weight:500;font-size:9.994px;">PREFERENCES</text><ellipse cx="100.18" cy="124.575" rx="10.583" ry="10.2" style="fill:#dbdbdb;stroke:#363636;stroke-width:1.5px;"/></svg>