<?xml version="1.0" encoding="UTF-8" standalone="no"?><!DOCTYPE svg PUBLIC "-//W3C//DTD SVG 1.1//EN" "http://www.w3.org/Graphics/SVG/1.1/DTD/svg11.dtd"><svg width="100%" height="100%" viewBox="0 0 120 145" version="1.1" xmlns="http://www.w3.org/2000/svg" xmlns:xlink="http://www.w3.org/1999/xlink" xml:space="preserve" xmlns:serif="http://www.serif.com/" style="fill-rule:evenodd;clip-rule:evenodd;stroke-linecap:round;stroke-linejoin:round;stroke-miterlimit:1.5;"><rect x="0" y="0" width="118.776" height="108.102" style="fill:#ebebeb;"/><path d="M61.844,6.831C70.11,6.831 77.105,54.84 77.105,77.974C77.105,101.108 70.11,100.515 61.844,100.515C53.578,100.515 45.687,101.108 45.687,77.974C45.687,54.84 53.578,6.831 61.844,6.831Z" style="fill:#47c0a0;stroke:#000;stroke-width:1px;"/><path d="M61.887,6.174C69.47,6.174 75.626,17.646 75.626,26.914C75.626,36.182 69.47,43.707 61.887,43.707C54.304,43.707 48.147,36.182 48.147,26.914C48.147,17.646 54.304,6.174 61.887,6.174Z" style="fill:#ffd38f;stroke:#000;stroke-width:1px;"/><path d="M76.879,68.269C77.093,71.863 77.206,75.205 77.206,78.146C77.206,101.28 70.211,100.686 61.945,100.686C53.679,100.686 45.788,101.28 45.788,78.146C45.788,75.205 45.915,71.863 46.155,68.269C56.092,71.885 66.328,71.942 76.879,68.269Z" style="fill:#c589a9;stroke:#000;stroke-width:1px;"/><path d="M50.956,60.231C50.956,57.697 48.849,55.64 46.254,55.64C43.659,55.64 41.552,57.697 41.552,60.231C41.552,62.764 43.659,64.821 46.254,64.821C48.849,64.821 50.956,62.764 50.956,60.231Z" style="fill:#c589a9;stroke:#000;stroke-width:1px;"/><path d="M41.817,58.054C34.743,51.574 41.304,49.415 48.281,43.871" style="fill:none;stroke:#000;stroke-width:0.95px;"/><path d="M72.165,60.007C72.165,57.474 74.272,55.417 76.867,55.417C79.462,55.417 81.569,57.474 81.569,60.007C81.569,62.541 79.462,64.598 76.867,64.598C74.272,64.598 72.165,62.541 72.165,60.007Z" style="fill:#c589a9;stroke:#000;stroke-width:1px;"/><path d="M81.304,57.831C88.378,51.351 81.817,49.192 74.84,43.647" style="fill:none;stroke:#000;stroke-width:0.95px;"/><path d="M58.623,43.411L56.631,55.654L61.411,62.64L67.007,55.654L63.912,43.411L58.623,43.411Z" style="fill:#e05856;stroke:#000;stroke-width:1px;"/><path d="M64.109,43.064L70.96,39.421L71.472,44.588L64.109,43.064Z" style="fill:#e05856;stroke:#000;stroke-width:1px;"/><path d="M59.205,43.541L52.354,39.899L51.842,45.066L59.205,43.541Z" style="fill:#e05856;stroke:#000;stroke-width:1px;"/><rect x="0.405" y="107.885" width="118.823" height="37.115" style="fill:#c2c2c2;"/><ellipse cx="100.54" cy="124.17" rx="10.589" ry="10.207" style="fill:#dbdbdb;stroke:#363636;stroke-width:1.5px;"/><text x="5.744px" y="132.053px" style="font-family:'Futura-Medium', 'Futura', sans-serif;font-weight:500;font-size:10px;">PR<tspan x="16.994px 25.93px " y="132.053px 132.053px ">OF</tspan>ESSIONAL</text></svg>