<?xml version="1.0" encoding="UTF-8" standalone="no"?><!DOCTYPE svg PUBLIC "-//W3C//DTD SVG 1.1//EN" "http://www.w3.org/Graphics/SVG/1.1/DTD/svg11.dtd"><svg width="100%" height="100%" viewBox="0 0 120 146" version="1.1" xmlns="http://www.w3.org/2000/svg" xmlns:xlink="http://www.w3.org/1999/xlink" xml:space="preserve" xmlns:serif="http://www.serif.com/" style="fill-rule:evenodd;clip-rule:evenodd;stroke-linecap:round;stroke-linejoin:round;stroke-miterlimit:1.5;"><rect x="0" y="0" width="118.776" height="108.102" style="fill:#ebebeb;"/><path d="M60.084,11.923C82.296,34.361 99.187,65.674 103.557,93.393L14.083,93.393C17.742,66.837 37.967,34.737 60.084,11.923Z" style="fill:#fff;stroke:#000;stroke-width:1px;"/><path d="M48.824,92.921C49.415,76.249 54.52,47.125 59.853,47.125C65.186,47.125 69.747,76.249 70.272,92.921L48.824,92.921Z" style="fill:#47c0a0;stroke:#000;stroke-width:1px;"/><ellipse cx="73.469" cy="49.371" rx="3.149" ry="3.226" style="fill:#c589a9;stroke:#000;stroke-width:1px;"/><path d="M74.691,50.973C78.459,57.936 71.867,76.488 64.449,73.299" style="fill:none;stroke:#000;stroke-width:0.95px;"/><ellipse cx="45.165" cy="49.131" rx="3.149" ry="3.226" style="fill:#c589a9;stroke:#000;stroke-width:1px;"/><path d="M43.943,50.733C40.175,57.695 46.767,76.247 54.185,73.058" style="fill:none;stroke:#000;stroke-width:0.95px;"/><path d="M59.882,46.674C65.085,46.674 69.308,54.544 69.308,60.903C69.308,67.261 65.085,72.424 59.882,72.424C54.68,72.424 50.456,67.261 50.456,60.903C50.456,54.544 54.68,46.674 59.882,46.674Z" style="fill:#ffd38f;stroke:#000;stroke-width:1px;"/><rect x="0.409" y="108.771" width="118.823" height="37.115" style="fill:#c2c2c2;"/><ellipse cx="101.215" cy="125.753" rx="10.589" ry="10.207" style="fill:#dbdbdb;stroke:#363636;stroke-width:1.5px;"/><text x="6.927px" y="131.538px" style="font-family:'Futura-Medium', 'Futura', sans-serif;font-weight:500;font-size:10px;">RELIGION</text></svg>