<?xml version="1.0" encoding="UTF-8" standalone="no"?><!DOCTYPE svg PUBLIC "-//W3C//DTD SVG 1.1//EN" "http://www.w3.org/Graphics/SVG/1.1/DTD/svg11.dtd"><svg width="100%" height="100%" viewBox="0 0 119 145" version="1.1" xmlns="http://www.w3.org/2000/svg" xmlns:xlink="http://www.w3.org/1999/xlink" xml:space="preserve" xmlns:serif="http://www.serif.com/" style="fill-rule:evenodd;clip-rule:evenodd;stroke-linecap:round;stroke-linejoin:round;stroke-miterlimit:1.5;"><rect x="0" y="0" width="118.159" height="107.95" style="fill:#ebebeb;"/><path d="M64.932,14.944C70.908,15.49 66.254,20.96 72.194,21.701C76.878,22.284 76.35,38.926 76.322,54.036C76.293,69.626 76.682,83.707 76.322,84.805C75.711,86.671 79.726,86.684 78.801,88.118C78.085,89.228 52.174,90.237 46.413,88.118C45.679,87.848 49.012,85.486 48.562,84.805C47.911,83.818 48.853,69.504 50.039,54.626C51.362,38.027 50.424,20.35 59.014,20.838C62.244,21.021 60.633,14.551 64.932,14.944Z" style="fill:#47c0a0;stroke:#000;stroke-width:1px;"/><rect x="0.173" y="107.744" width="118.823" height="37.256" style="fill:#c2c2c2;"/><ellipse cx="100.645" cy="128.278" rx="10.589" ry="10.246" style="fill:#dbdbdb;stroke:#363636;stroke-width:1.5px;"/><text x="6.058px" y="132.053px" style="font-family:'Futura-Medium', 'Futura', sans-serif;font-weight:500;font-size:10.038px;">SEXU<tspan x="30.785px 38.192px " y="132.053px 132.053px ">AL</tspan></text></svg>