<?xml version="1.0" encoding="UTF-8" standalone="no"?><!DOCTYPE svg PUBLIC "-//W3C//DTD SVG 1.1//EN" "http://www.w3.org/Graphics/SVG/1.1/DTD/svg11.dtd"><svg width="100%" height="100%" viewBox="0 0 119 145" version="1.1" xmlns="http://www.w3.org/2000/svg" xmlns:xlink="http://www.w3.org/1999/xlink" xml:space="preserve" xmlns:serif="http://www.serif.com/" style="fill-rule:evenodd;clip-rule:evenodd;stroke-linecap:round;stroke-linejoin:round;stroke-miterlimit:1.5;"><rect x="0" y="0" width="118.634" height="107.831" style="fill:#ebebeb;"/><path d="M33.295,28.564C37.762,28.564 41.542,54.472 41.542,66.956C41.542,79.44 37.762,79.12 33.295,79.12C28.828,79.12 24.565,79.44 24.565,66.956C24.565,54.472 28.828,28.564 33.295,28.564Z" style="fill:#c589a9;stroke:#000;stroke-width:1px;"/><g><path d="M94.194,27.182C98.661,27.182 102.441,53.09 102.441,65.574C102.441,78.058 98.661,77.738 94.194,77.738C89.728,77.738 85.464,78.058 85.464,65.574C85.464,53.09 89.728,27.182 94.194,27.182Z" style="fill:#47c0a0;stroke:#000;stroke-width:1px;"/><path d="M94.218,26.827C98.315,26.827 101.642,33.018 101.642,38.019C101.642,43.021 98.315,47.082 94.218,47.082C90.12,47.082 86.793,43.021 86.793,38.019C86.793,33.018 90.12,26.827 94.218,26.827Z" style="fill:#ffd38f;stroke:#000;stroke-width:1px;"/><path d="M102.319,60.336C102.434,62.276 102.496,64.08 102.496,65.666C102.496,78.151 98.716,77.83 94.249,77.83C89.782,77.83 85.518,78.151 85.518,65.666C85.518,64.08 85.587,62.276 85.717,60.336C91.086,62.288 96.617,62.319 102.319,60.336Z" style="fill:#c589a9;stroke:#000;stroke-width:1px;"/><path d="M76.28,51.761C76.787,50.491 78.256,49.882 79.558,50.4C80.861,50.919 81.507,52.371 81,53.641C80.493,54.911 79.024,55.521 77.721,55.002C76.419,54.483 75.773,53.031 76.28,51.761Z" style="fill:#c589a9;stroke:#000;stroke-width:1px;"/><path d="M81.193,52.702C84.295,52.991 85.933,51.743 86.569,49.444" style="fill:none;stroke:#000;stroke-width:0.95px;"/><path d="M111.358,51.129C110.851,49.859 109.382,49.249 108.079,49.767C106.777,50.286 106.131,51.738 106.638,53.008C107.145,54.278 108.614,54.888 109.916,54.369C111.219,53.851 111.865,52.399 111.358,51.129Z" style="fill:#c589a9;stroke:#000;stroke-width:1px;"/><path d="M106.445,52.069C103.343,52.359 101.705,51.111 101.069,48.811" style="fill:none;stroke:#000;stroke-width:0.95px;"/></g><path d="M63.844,27.885C68.311,27.885 72.09,53.793 72.09,66.277C72.09,78.762 68.311,78.441 63.844,78.441C59.377,78.441 55.113,78.762 55.113,66.277C55.113,53.793 59.377,27.885 63.844,27.885Z" style="fill:#47c0a0;stroke:#000;stroke-width:1px;"/><path d="M63.867,27.531C67.965,27.531 71.291,33.721 71.291,38.723C71.291,43.724 67.965,47.785 63.867,47.785C59.769,47.785 56.443,43.724 56.443,38.723C56.443,33.721 59.769,27.531 63.867,27.531Z" style="fill:#ffd38f;stroke:#000;stroke-width:1px;"/><path d="M71.968,61.04C72.084,62.979 72.145,64.783 72.145,66.37C72.145,78.854 68.365,78.534 63.898,78.534C59.432,78.534 55.168,78.854 55.168,66.37C55.168,64.783 55.237,62.979 55.366,61.04C60.735,62.992 66.267,63.022 71.968,61.04Z" style="fill:#e05856;stroke:#000;stroke-width:1px;"/><path d="M45.929,52.465C46.436,51.195 47.905,50.585 49.208,51.104C50.51,51.622 51.156,53.074 50.649,54.344C50.142,55.614 48.673,56.224 47.37,55.706C46.068,55.187 45.422,53.735 45.929,52.465Z" style="fill:#c589a9;stroke:#000;stroke-width:1px;"/><path d="M50.842,53.405C53.944,53.695 55.582,52.447 56.218,50.147" style="fill:none;stroke:#000;stroke-width:0.95px;"/><path d="M81.007,51.832C80.5,50.562 79.031,49.952 77.729,50.471C76.426,50.99 75.78,52.442 76.287,53.712C76.794,54.982 78.263,55.591 79.566,55.073C80.868,54.554 81.514,53.102 81.007,51.832Z" style="fill:#c589a9;stroke:#000;stroke-width:1px;"/><path d="M76.094,52.773C72.992,53.062 71.354,51.814 70.718,49.514" style="fill:none;stroke:#000;stroke-width:0.95px;"/><path d="M33.318,28.209C37.416,28.209 40.743,34.4 40.743,39.401C40.743,44.403 37.416,48.464 33.318,48.464C29.221,48.464 25.894,44.403 25.894,39.401C25.894,34.4 29.221,28.209 33.318,28.209Z" style="fill:#ffd38f;stroke:#000;stroke-width:1px;"/><path d="M15.381,53.143C15.888,51.873 17.357,51.263 18.659,51.782C19.962,52.301 20.608,53.753 20.101,55.023C19.594,56.293 18.125,56.903 16.822,56.384C15.519,55.865 14.874,54.413 15.381,53.143Z" style="fill:#c589a9;stroke:#000;stroke-width:1px;"/><path d="M20.294,54.084C23.396,54.373 25.033,53.125 25.669,50.825" style="fill:none;stroke:#000;stroke-width:0.95px;"/><path d="M50.459,52.511C49.952,51.241 48.483,50.631 47.18,51.149C45.878,51.668 45.232,53.12 45.739,54.39C46.246,55.66 47.715,56.27 49.017,55.751C50.32,55.233 50.966,53.78 50.459,52.511Z" style="fill:#c589a9;stroke:#000;stroke-width:1px;"/><path d="M45.545,53.451C42.444,53.741 40.806,52.493 40.17,50.193" style="fill:none;stroke:#000;stroke-width:0.95px;"/><path d="M33.301,28.438C35.944,28.438 38.089,29.554 38.089,30.93C38.089,32.305 35.944,34.556 33.301,34.556C30.659,34.556 28.514,32.305 28.514,30.93C28.514,29.554 30.659,28.438 33.301,28.438Z"/><path d="M94.281,45.525C96.04,45.525 97.467,44.15 97.467,45.525C97.467,46.9 96.04,49.152 94.281,49.152C92.523,49.152 91.096,46.9 91.096,45.525C91.096,44.15 92.523,45.525 94.281,45.525Z"/><path d="M41.42,61.718C41.535,63.658 41.596,65.461 41.596,67.048C41.596,79.532 37.817,79.212 33.35,79.212C28.883,79.212 24.619,79.532 24.619,67.048C24.619,65.461 24.688,63.658 24.817,61.718C30.187,63.67 35.718,63.701 41.42,61.718Z" style="fill:#47c0a0;stroke:#000;stroke-width:1px;"/><rect x="0.32" y="107.978" width="118.68" height="37.022" style="fill:#c2c2c2;"/><ellipse cx="100.836" cy="125.733" rx="10.577" ry="10.181" style="fill:#dbdbdb;stroke:#363636;stroke-width:1.5px;"/><text x="6.113px" y="131.009px" style="font-family:'Futura-Medium', 'Futura', sans-serif;font-weight:500;font-size:9.975px;">SOCIAL</text></svg>