<?xml version="1.0" encoding="UTF-8" standalone="no"?><!DOCTYPE svg PUBLIC "-//W3C//DTD SVG 1.1//EN" "http://www.w3.org/Graphics/SVG/1.1/DTD/svg11.dtd"><svg width="100%" height="100%" viewBox="0 0 119 145" version="1.1" xmlns="http://www.w3.org/2000/svg" xmlns:xlink="http://www.w3.org/1999/xlink" xml:space="preserve" xmlns:serif="http://www.serif.com/" style="fill-rule:evenodd;clip-rule:evenodd;stroke-linecap:round;stroke-linejoin:round;stroke-miterlimit:1.5;"><rect x="0" y="0" width="118.714" height="107.613" style="fill:#ebebeb;"/><path d="M50.045,46.117L61.582,46.117L60.546,65.009L55.315,60.052L48.472,65.009L47.534,76.061L42.314,79.507L50.045,87.428L47.534,92.628L38.941,92.628L32.862,98.35L37.429,104.273L46.307,104.273L50.045,100.22L77.853,100.22L85.896,92.628L80.646,87.428L92.779,79.507L92.779,70.039L81.862,70.039L81.862,50.926L76.082,46.117L76.082,35.675L71.584,29.127L84.66,17.977L71.584,17.977L71.584,13.565L79.599,4.869L67.031,4.869L51.738,19.909L57.819,26.34L50.045,34.36L50.045,46.117Z" style="fill:none;stroke:#000;stroke-width:0.95px;"/><path d="M39.571,79.238C41.23,79.238 42.634,88.835 42.634,93.46C42.634,98.085 41.23,97.966 39.571,97.966C37.912,97.966 36.328,98.085 36.328,93.46C36.328,88.835 37.912,79.238 39.571,79.238Z" style="fill:#47c0a0;stroke:#000;stroke-width:0.7px;"/><path d="M39.58,79.106C41.102,79.106 42.337,81.399 42.337,83.252C42.337,85.105 41.102,86.609 39.58,86.609C38.058,86.609 36.822,85.105 36.822,83.252C36.822,81.399 38.058,79.106 39.58,79.106Z" style="fill:#ffd38f;stroke:#000;stroke-width:0.7px;"/><path d="M42.589,91.52C42.632,92.238 42.655,92.906 42.655,93.494C42.655,98.119 41.251,98 39.591,98C37.932,98 36.348,98.119 36.348,93.494C36.348,92.906 36.374,92.238 36.422,91.52C38.416,92.243 40.471,92.254 42.589,91.52Z" style="fill:#c589a9;stroke:#000;stroke-width:0.7px;"/><ellipse cx="34.549" cy="85.95" rx="0.921" ry="0.94" style="fill:#c589a9;stroke:#000;stroke-width:0.7px;"/><path d="M34.9,86.827C35.227,87.933 35.883,88.324 36.766,88.227" style="fill:none;stroke:#000;stroke-width:0.7px;"/><ellipse cx="44.436" cy="85.483" rx="0.921" ry="0.94" style="fill:#c589a9;stroke:#000;stroke-width:0.7px;"/><path d="M44.085,86.36C43.759,87.466 43.102,87.858 42.22,87.761" style="fill:none;stroke:#000;stroke-width:0.7px;"/><path d="M52.938,60.239C54.597,60.239 56.001,69.837 56.001,74.462C56.001,79.086 54.597,78.968 52.938,78.968C51.279,78.968 49.695,79.086 49.695,74.462C49.695,69.837 51.279,60.239 52.938,60.239Z" style="fill:#47c0a0;stroke:#000;stroke-width:0.7px;"/><path d="M52.947,60.108C54.469,60.108 55.704,62.401 55.704,64.254C55.704,66.107 54.469,67.611 52.947,67.611C51.425,67.611 50.189,66.107 50.189,64.254C50.189,62.401 51.425,60.108 52.947,60.108Z" style="fill:#ffd38f;stroke:#000;stroke-width:0.7px;"/><path d="M55.956,72.521C55.999,73.24 56.022,73.908 56.022,74.496C56.022,79.121 54.618,79.002 52.958,79.002C51.299,79.002 49.715,79.121 49.715,74.496C49.715,73.908 49.741,73.24 49.789,72.521C51.783,73.244 53.838,73.256 55.956,72.521Z" style="fill:#c589a9;stroke:#000;stroke-width:0.7px;"/><ellipse cx="47.916" cy="66.951" rx="0.921" ry="0.94" style="fill:#c589a9;stroke:#000;stroke-width:0.7px;"/><path d="M48.267,67.829C48.594,68.934 49.251,69.326 50.133,69.229" style="fill:none;stroke:#000;stroke-width:0.7px;"/><ellipse cx="57.803" cy="66.484" rx="0.921" ry="0.94" style="fill:#c589a9;stroke:#000;stroke-width:0.7px;"/><path d="M57.452,67.362C57.126,68.468 56.469,68.859 55.587,68.762" style="fill:none;stroke:#000;stroke-width:0.7px;"/><path d="M64.943,83.01C66.602,83.01 68.006,92.607 68.006,97.232C68.006,101.857 66.602,101.738 64.943,101.738C63.283,101.738 61.7,101.857 61.7,97.232C61.7,92.607 63.283,83.01 64.943,83.01Z" style="fill:#47c0a0;stroke:#000;stroke-width:0.7px;"/><path d="M64.951,82.878C66.473,82.878 67.709,85.171 67.709,87.024C67.709,88.877 66.473,90.381 64.951,90.381C63.429,90.381 62.194,88.877 62.194,87.024C62.194,85.171 63.429,82.878 64.951,82.878Z" style="fill:#ffd38f;stroke:#000;stroke-width:0.7px;"/><path d="M67.961,95.292C68.004,96.01 68.026,96.678 68.026,97.266C68.026,101.891 66.622,101.772 64.963,101.772C63.304,101.772 61.72,101.891 61.72,97.266C61.72,96.678 61.745,96.01 61.794,95.292C63.788,96.015 65.843,96.026 67.961,95.292Z" style="fill:#c589a9;stroke:#000;stroke-width:0.7px;"/><ellipse cx="59.921" cy="89.722" rx="0.921" ry="0.94" style="fill:#c589a9;stroke:#000;stroke-width:0.7px;"/><path d="M60.272,90.599C60.599,91.705 61.255,92.096 62.137,91.999" style="fill:none;stroke:#000;stroke-width:0.7px;"/><ellipse cx="69.808" cy="89.255" rx="0.921" ry="0.94" style="fill:#c589a9;stroke:#000;stroke-width:0.7px;"/><path d="M69.457,90.132C69.13,91.238 68.474,91.63 67.592,91.533" style="fill:none;stroke:#000;stroke-width:0.7px;"/><path d="M61.245,47.255C62.904,47.255 64.308,56.852 64.308,61.477C64.308,66.102 62.904,65.983 61.245,65.983C59.585,65.983 58.002,66.102 58.002,61.477C58.002,56.852 59.585,47.255 61.245,47.255Z" style="fill:#47c0a0;stroke:#000;stroke-width:0.7px;"/><path d="M61.253,47.123C62.775,47.123 64.011,49.417 64.011,51.269C64.011,53.122 62.775,54.627 61.253,54.627C59.731,54.627 58.495,53.122 58.495,51.269C58.495,49.417 59.731,47.123 61.253,47.123Z" style="fill:#ffd38f;stroke:#000;stroke-width:0.7px;"/><path d="M64.262,59.537C64.305,60.255 64.328,60.924 64.328,61.511C64.328,66.136 62.924,66.017 61.265,66.017C59.606,66.017 58.022,66.136 58.022,61.511C58.022,60.924 58.047,60.255 58.095,59.537C60.09,60.26 62.145,60.271 64.262,59.537Z" style="fill:#c589a9;stroke:#000;stroke-width:0.7px;"/><ellipse cx="56.223" cy="53.967" rx="0.921" ry="0.94" style="fill:#c589a9;stroke:#000;stroke-width:0.7px;"/><path d="M56.574,54.844C56.901,55.95 57.557,56.342 58.439,56.245" style="fill:none;stroke:#000;stroke-width:0.7px;"/><ellipse cx="66.11" cy="53.5" rx="0.921" ry="0.94" style="fill:#c589a9;stroke:#000;stroke-width:0.7px;"/><path d="M65.759,54.377C65.432,55.483 64.776,55.875 63.894,55.778" style="fill:none;stroke:#000;stroke-width:0.7px;"/><path d="M76.821,77.056C78.481,77.056 79.885,86.654 79.885,91.279C79.885,95.903 78.481,95.785 76.821,95.785C75.162,95.785 73.578,95.903 73.578,91.279C73.578,86.654 75.162,77.056 76.821,77.056Z" style="fill:#47c0a0;stroke:#000;stroke-width:0.7px;"/><path d="M76.83,76.925C78.352,76.925 79.588,79.218 79.588,81.071C79.588,82.924 78.352,84.428 76.83,84.428C75.308,84.428 74.072,82.924 74.072,81.071C74.072,79.218 75.308,76.925 76.83,76.925Z" style="fill:#ffd38f;stroke:#000;stroke-width:0.7px;"/><path d="M79.839,89.338C79.882,90.057 79.905,90.725 79.905,91.313C79.905,95.938 78.501,95.819 76.842,95.819C75.182,95.819 73.599,95.938 73.599,91.313C73.599,90.725 73.624,90.057 73.672,89.338C75.667,90.061 77.721,90.073 79.839,89.338Z" style="fill:#c589a9;stroke:#000;stroke-width:0.7px;"/><ellipse cx="71.8" cy="83.768" rx="0.921" ry="0.94" style="fill:#c589a9;stroke:#000;stroke-width:0.7px;"/><path d="M72.151,84.646C72.477,85.751 73.134,86.143 74.016,86.046" style="fill:none;stroke:#000;stroke-width:0.7px;"/><ellipse cx="81.687" cy="83.301" rx="0.921" ry="0.94" style="fill:#c589a9;stroke:#000;stroke-width:0.7px;"/><path d="M81.336,84.179C81.009,85.285 80.352,85.676 79.47,85.579" style="fill:none;stroke:#000;stroke-width:0.7px;"/><path d="M84.628,61.514C86.287,61.514 87.691,71.111 87.691,75.736C87.691,80.361 86.287,80.242 84.628,80.242C82.969,80.242 81.385,80.361 81.385,75.736C81.385,71.111 82.969,61.514 84.628,61.514Z" style="fill:#47c0a0;stroke:#000;stroke-width:0.7px;"/><path d="M84.637,61.382C86.159,61.382 87.395,63.676 87.395,65.529C87.395,67.381 86.159,68.886 84.637,68.886C83.115,68.886 81.879,67.381 81.879,65.529C81.879,63.676 83.115,61.382 84.637,61.382Z" style="fill:#ffd38f;stroke:#000;stroke-width:0.7px;"/><path d="M87.646,73.796C87.689,74.514 87.712,75.183 87.712,75.77C87.712,80.395 86.308,80.277 84.648,80.277C82.989,80.277 81.405,80.395 81.405,75.77C81.405,75.183 81.431,74.514 81.479,73.796C83.474,74.519 85.528,74.53 87.646,73.796Z" style="fill:#c589a9;stroke:#000;stroke-width:0.7px;"/><ellipse cx="79.606" cy="68.226" rx="0.921" ry="0.94" style="fill:#c589a9;stroke:#000;stroke-width:0.7px;"/><path d="M79.957,69.103C80.284,70.209 80.941,70.601 81.823,70.504" style="fill:none;stroke:#000;stroke-width:0.7px;"/><ellipse cx="89.493" cy="67.759" rx="0.921" ry="0.94" style="fill:#c589a9;stroke:#000;stroke-width:0.7px;"/><path d="M89.142,68.637C88.816,69.742 88.159,70.134 87.277,70.037" style="fill:none;stroke:#000;stroke-width:0.7px;"/><path d="M75.174,55.076C76.834,55.076 78.238,64.673 78.238,69.298C78.238,73.923 76.834,73.804 75.174,73.804C73.515,73.804 71.931,73.923 71.931,69.298C71.931,64.673 73.515,55.076 75.174,55.076Z" style="fill:#47c0a0;stroke:#000;stroke-width:0.7px;"/><path d="M75.183,54.944C76.705,54.944 77.941,57.238 77.941,59.09C77.941,60.943 76.705,62.448 75.183,62.448C73.661,62.448 72.425,60.943 72.425,59.09C72.425,57.238 73.661,54.944 75.183,54.944Z" style="fill:#ffd38f;stroke:#000;stroke-width:0.7px;"/><path d="M78.192,67.358C78.235,68.076 78.258,68.745 78.258,69.332C78.258,73.957 76.854,73.838 75.195,73.838C73.535,73.838 71.952,73.957 71.952,69.332C71.952,68.745 71.977,68.076 72.025,67.358C74.02,68.081 76.074,68.092 78.192,67.358Z" style="fill:#c589a9;stroke:#000;stroke-width:0.7px;"/><ellipse cx="70.153" cy="61.788" rx="0.921" ry="0.94" style="fill:#c589a9;stroke:#000;stroke-width:0.7px;"/><path d="M70.504,62.665C70.83,63.771 71.487,64.163 72.369,64.066" style="fill:none;stroke:#000;stroke-width:0.7px;"/><ellipse cx="80.04" cy="61.321" rx="0.921" ry="0.94" style="fill:#c589a9;stroke:#000;stroke-width:0.7px;"/><path d="M79.689,62.198C79.362,63.304 78.705,63.696 77.823,63.599" style="fill:none;stroke:#000;stroke-width:0.7px;"/><path d="M70.809,37.681C72.468,37.681 73.872,47.278 73.872,51.903C73.872,56.528 72.468,56.409 70.809,56.409C69.15,56.409 67.566,56.528 67.566,51.903C67.566,47.278 69.15,37.681 70.809,37.681Z" style="fill:#47c0a0;stroke:#000;stroke-width:0.7px;"/><path d="M70.818,37.549C72.34,37.549 73.576,39.843 73.576,41.696C73.576,43.548 72.34,45.053 70.818,45.053C69.296,45.053 68.06,43.548 68.06,41.696C68.06,39.843 69.296,37.549 70.818,37.549Z" style="fill:#ffd38f;stroke:#000;stroke-width:0.7px;"/><path d="M73.827,49.963C73.87,50.682 73.893,51.35 73.893,51.937C73.893,56.562 72.489,56.444 70.83,56.444C69.17,56.444 67.586,56.562 67.586,51.937C67.586,51.35 67.612,50.682 67.66,49.963C69.655,50.686 71.709,50.697 73.827,49.963Z" style="fill:#c589a9;stroke:#000;stroke-width:0.7px;"/><ellipse cx="65.788" cy="44.393" rx="0.921" ry="0.94" style="fill:#c589a9;stroke:#000;stroke-width:0.7px;"/><path d="M66.139,45.27C66.465,46.376 67.122,46.768 68.004,46.671" style="fill:none;stroke:#000;stroke-width:0.7px;"/><ellipse cx="75.675" cy="43.926" rx="0.921" ry="0.94" style="fill:#c589a9;stroke:#000;stroke-width:0.7px;"/><path d="M75.324,44.804C74.997,45.909 74.34,46.301 73.458,46.204" style="fill:none;stroke:#000;stroke-width:0.7px;"/><path d="M53.946,27.899C55.605,27.899 57.009,37.497 57.009,42.122C57.009,46.746 55.605,46.628 53.946,46.628C52.287,46.628 50.703,46.746 50.703,42.122C50.703,37.497 52.287,27.899 53.946,27.899Z" style="fill:#47c0a0;stroke:#000;stroke-width:0.7px;"/><path d="M53.955,27.768C55.477,27.768 56.713,30.061 56.713,31.914C56.713,33.767 55.477,35.271 53.955,35.271C52.433,35.271 51.197,33.767 51.197,31.914C51.197,30.061 52.433,27.768 53.955,27.768Z" style="fill:#ffd38f;stroke:#000;stroke-width:0.7px;"/><path d="M56.964,40.181C57.007,40.9 57.03,41.568 57.03,42.156C57.03,46.781 55.626,46.662 53.966,46.662C52.307,46.662 50.723,46.781 50.723,42.156C50.723,41.568 50.749,40.9 50.797,40.181C52.792,40.904 54.846,40.916 56.964,40.181Z" style="fill:#c589a9;stroke:#000;stroke-width:0.7px;"/><ellipse cx="48.924" cy="34.611" rx="0.921" ry="0.94" style="fill:#c589a9;stroke:#000;stroke-width:0.7px;"/><path d="M49.275,35.489C49.602,36.594 50.259,36.986 51.141,36.889" style="fill:none;stroke:#000;stroke-width:0.7px;"/><ellipse cx="58.812" cy="34.144" rx="0.921" ry="0.94" style="fill:#c589a9;stroke:#000;stroke-width:0.7px;"/><path d="M58.461,35.022C58.134,36.128 57.477,36.519 56.595,36.422" style="fill:none;stroke:#000;stroke-width:0.7px;"/><path d="M64.052,26.666C65.711,26.666 67.115,36.263 67.115,40.888C67.115,45.513 65.711,45.394 64.052,45.394C62.393,45.394 60.809,45.513 60.809,40.888C60.809,36.263 62.393,26.666 64.052,26.666Z" style="fill:#47c0a0;stroke:#000;stroke-width:0.7px;"/><path d="M64.06,26.534C65.583,26.534 66.818,28.828 66.818,30.68C66.818,32.533 65.583,34.038 64.06,34.038C62.538,34.038 61.303,32.533 61.303,30.68C61.303,28.828 62.538,26.534 64.06,26.534Z" style="fill:#ffd38f;stroke:#000;stroke-width:0.7px;"/><path d="M67.07,38.948C67.113,39.666 67.135,40.335 67.135,40.922C67.135,45.547 65.731,45.428 64.072,45.428C62.413,45.428 60.829,45.547 60.829,40.922C60.829,40.335 60.855,39.666 60.903,38.948C62.897,39.671 64.952,39.682 67.07,38.948Z" style="fill:#c589a9;stroke:#000;stroke-width:0.7px;"/><ellipse cx="59.03" cy="33.378" rx="0.921" ry="0.94" style="fill:#c589a9;stroke:#000;stroke-width:0.7px;"/><path d="M59.381,34.255C59.708,35.361 60.364,35.753 61.246,35.656" style="fill:none;stroke:#000;stroke-width:0.7px;"/><ellipse cx="68.917" cy="32.911" rx="0.921" ry="0.94" style="fill:#c589a9;stroke:#000;stroke-width:0.7px;"/><path d="M68.566,33.788C68.239,34.894 67.583,35.286 66.701,35.189" style="fill:none;stroke:#000;stroke-width:0.7px;"/><path d="M75.715,16.769C77.375,16.769 78.779,26.367 78.779,30.992C78.779,35.617 77.375,35.498 75.715,35.498C74.056,35.498 72.472,35.617 72.472,30.992C72.472,26.367 74.056,16.769 75.715,16.769Z" style="fill:#47c0a0;stroke:#000;stroke-width:0.7px;"/><path d="M75.724,16.638C77.246,16.638 78.482,18.931 78.482,20.784C78.482,22.637 77.246,24.141 75.724,24.141C74.202,24.141 72.966,22.637 72.966,20.784C72.966,18.931 74.202,16.638 75.724,16.638Z" style="fill:#ffd38f;stroke:#000;stroke-width:0.7px;"/><path d="M78.733,29.051C78.776,29.77 78.799,30.438 78.799,31.026C78.799,35.651 77.395,35.532 75.736,35.532C74.076,35.532 72.493,35.651 72.493,31.026C72.493,30.438 72.518,29.77 72.566,29.051C74.561,29.775 76.615,29.786 78.733,29.051Z" style="fill:#c589a9;stroke:#000;stroke-width:0.7px;"/><ellipse cx="70.694" cy="23.481" rx="0.921" ry="0.94" style="fill:#c589a9;stroke:#000;stroke-width:0.7px;"/><path d="M71.045,24.359C71.371,25.465 72.028,25.856 72.91,25.759" style="fill:none;stroke:#000;stroke-width:0.7px;"/><ellipse cx="80.581" cy="23.015" rx="0.921" ry="0.94" style="fill:#c589a9;stroke:#000;stroke-width:0.7px;"/><path d="M80.23,23.892C79.903,24.998 79.247,25.389 78.364,25.292" style="fill:none;stroke:#000;stroke-width:0.7px;"/><path d="M64.745,4.008C66.404,4.008 67.808,13.605 67.808,18.23C67.808,22.855 66.404,22.736 64.745,22.736C63.086,22.736 61.502,22.855 61.502,18.23C61.502,13.605 63.086,4.008 64.745,4.008Z" style="fill:#47c0a0;stroke:#000;stroke-width:0.7px;"/><path d="M64.754,3.876C66.276,3.876 67.511,6.17 67.511,8.023C67.511,9.875 66.276,11.38 64.754,11.38C63.232,11.38 61.996,9.875 61.996,8.023C61.996,6.17 63.232,3.876 64.754,3.876Z" style="fill:#ffd38f;stroke:#000;stroke-width:0.7px;"/><path d="M67.763,16.29C67.806,17.008 67.828,17.677 67.828,18.264C67.828,22.889 66.424,22.771 64.765,22.771C63.106,22.771 61.522,22.889 61.522,18.264C61.522,17.677 61.548,17.008 61.596,16.29C63.59,17.013 65.645,17.024 67.763,16.29Z" style="fill:#c589a9;stroke:#000;stroke-width:0.7px;"/><ellipse cx="59.723" cy="10.72" rx="0.921" ry="0.94" style="fill:#c589a9;stroke:#000;stroke-width:0.7px;"/><path d="M60.074,11.597C60.401,12.703 61.057,13.095 61.94,12.998" style="fill:none;stroke:#000;stroke-width:0.7px;"/><ellipse cx="69.61" cy="10.253" rx="0.921" ry="0.94" style="fill:#c589a9;stroke:#000;stroke-width:0.7px;"/><path d="M69.259,11.13C68.933,12.236 68.276,12.628 67.394,12.531" style="fill:none;stroke:#000;stroke-width:0.7px;"/><path d="M53.614,82.386C55.273,82.386 56.677,91.984 56.677,96.609C56.677,101.234 55.273,101.115 53.614,101.115C51.955,101.115 50.371,101.234 50.371,96.609C50.371,91.984 51.955,82.386 53.614,82.386Z" style="fill:#47c0a0;stroke:#000;stroke-width:0.7px;"/><path d="M53.622,82.255C55.144,82.255 56.38,84.548 56.38,86.401C56.38,88.254 55.144,89.758 53.622,89.758C52.1,89.758 50.865,88.254 50.865,86.401C50.865,84.548 52.1,82.255 53.622,82.255Z" style="fill:#ffd38f;stroke:#000;stroke-width:0.7px;"/><path d="M56.632,94.668C56.675,95.387 56.697,96.055 56.697,96.643C56.697,101.268 55.293,101.149 53.634,101.149C51.975,101.149 50.391,101.268 50.391,96.643C50.391,96.055 50.417,95.387 50.465,94.668C52.459,95.391 54.514,95.403 56.632,94.668Z" style="fill:#c589a9;stroke:#000;stroke-width:0.7px;"/><ellipse cx="48.592" cy="89.098" rx="0.921" ry="0.94" style="fill:#c589a9;stroke:#000;stroke-width:0.7px;"/><path d="M48.943,89.976C49.27,91.082 49.926,91.473 50.808,91.376" style="fill:none;stroke:#000;stroke-width:0.7px;"/><ellipse cx="58.479" cy="88.631" rx="0.921" ry="0.94" style="fill:#c589a9;stroke:#000;stroke-width:0.7px;"/><path d="M58.128,89.509C57.801,90.615 57.145,91.006 56.263,90.909" style="fill:none;stroke:#000;stroke-width:0.7px;"/><path d="M65.458,60.443C67.117,60.443 68.521,70.04 68.521,74.665C68.521,79.29 67.117,79.171 65.458,79.171C63.798,79.171 62.215,79.29 62.215,74.665C62.215,70.04 63.798,60.443 65.458,60.443Z" style="fill:#47c0a0;stroke:#000;stroke-width:0.7px;"/><path d="M65.466,60.311C66.988,60.311 68.224,62.604 68.224,64.457C68.224,66.31 66.988,67.814 65.466,67.814C63.944,67.814 62.708,66.31 62.708,64.457C62.708,62.604 63.944,60.311 65.466,60.311Z" style="fill:#ffd38f;stroke:#000;stroke-width:0.7px;"/><path d="M68.475,72.725C68.518,73.443 68.541,74.111 68.541,74.699C68.541,79.324 67.137,79.205 65.478,79.205C63.819,79.205 62.235,79.324 62.235,74.699C62.235,74.111 62.26,73.443 62.308,72.725C64.303,73.448 66.358,73.459 68.475,72.725Z" style="fill:#c589a9;stroke:#000;stroke-width:0.7px;"/><ellipse cx="60.436" cy="67.155" rx="0.921" ry="0.94" style="fill:#c589a9;stroke:#000;stroke-width:0.7px;"/><path d="M60.787,68.032C61.114,69.138 61.77,69.529 62.652,69.432" style="fill:none;stroke:#000;stroke-width:0.7px;"/><ellipse cx="70.323" cy="66.688" rx="0.921" ry="0.94" style="fill:#c589a9;stroke:#000;stroke-width:0.7px;"/><path d="M69.972,67.565C69.645,68.671 68.989,69.063 68.107,68.966" style="fill:none;stroke:#000;stroke-width:0.7px;"/><rect x="0.239" y="108.053" width="118.761" height="36.947" style="fill:#c2c2c2;"/><ellipse cx="102.21" cy="125.391" rx="10.584" ry="10.161" style="fill:#dbdbdb;stroke:#363636;stroke-width:1.5px;"/><text x="7.299px" y="129.573px" style="font-family:'Futura-Medium', 'Futura', sans-serif;font-weight:500;font-size:9.955px;">S<tspan x="13.267px 17.679px 24.663px 29.484px " y="129.573px 129.573px 129.573px 129.573px ">TATE</tspan></text></svg>