<?xml version="1.0" encoding="UTF-8" standalone="no"?><!DOCTYPE svg PUBLIC "-//W3C//DTD SVG 1.1//EN" "http://www.w3.org/Graphics/SVG/1.1/DTD/svg11.dtd"><svg width="100%" height="100%" viewBox="0 0 119 145" version="1.1" xmlns="http://www.w3.org/2000/svg" xmlns:xlink="http://www.w3.org/1999/xlink" xml:space="preserve" xmlns:serif="http://www.serif.com/" style="fill-rule:evenodd;clip-rule:evenodd;stroke-linecap:round;stroke-linejoin:round;stroke-miterlimit:1.5;"><rect x="0" y="0" width="118.776" height="108.781" style="fill:#ebebeb;"/><g><path d="M49.467,90.071C50.84,65.658 57.832,27.481 65.122,27.481C72.352,27.481 78.594,65.047 79.891,89.48C75.093,91.818 69.717,93.127 64.042,93.127C58.864,93.127 53.935,92.037 49.467,90.071Z" style="fill:#47c0a0;stroke:#000;stroke-width:1px;"/><ellipse cx="40.505" cy="60.723" rx="4.516" ry="4.655" style="fill:#c589a9;stroke:#000;stroke-width:1px;"/><path d="M42.226,65.069C43.827,70.545 47.045,72.485 51.369,72.004" style="fill:none;stroke:#000;stroke-width:0.95px;"/><ellipse cx="88.971" cy="58.411" rx="4.516" ry="4.655" style="fill:#c589a9;stroke:#000;stroke-width:1px;"/><path d="M87.251,62.757C85.649,68.233 82.431,70.173 78.107,69.692" style="fill:none;stroke:#000;stroke-width:0.95px;"/><path d="M65.164,26.83C72.625,26.83 78.683,38.188 78.683,47.365C78.683,56.541 72.625,63.991 65.164,63.991C57.703,63.991 51.645,56.541 51.645,47.365C51.645,38.188 57.703,26.83 65.164,26.83Z" style="fill:#ffd38f;stroke:#000;stroke-width:1px;"/><ellipse cx="64.936" cy="55.179" rx="36.099" ry="37.454" style="fill:none;stroke:#000;stroke-width:1px;"/><path d="M101.819,57.252L108.614,57.252" style="fill:none;stroke:#000;stroke-width:1px;"/><path d="M20.61,56.719L27.405,56.719" style="fill:none;stroke:#000;stroke-width:1px;"/><path d="M65.245,17.365L65.245,10.527" style="fill:none;stroke:#000;stroke-width:1px;"/><path d="M62.928,99.697L62.928,92.859" style="fill:none;stroke:#000;stroke-width:1px;"/></g><rect x="0.15" y="107.652" width="118.823" height="37.348" style="fill:#c2c2c2;"/><ellipse cx="101.158" cy="124.434" rx="10.589" ry="10.271" style="fill:#dbdbdb;stroke:#363636;stroke-width:1.5px;"/><text x="6.535px" y="129.082px" style="font-family:'Futura-Medium', 'Futura', sans-serif;font-weight:500;font-size:10.063px;">TRA<tspan x="24.436px 31.652px 38.278px " y="129.082px 129.082px 129.082px ">CKI</tspan>NG</text></svg>